<svg xmlns="http://www.w3.org/2000/svg" xmlns:xlink="http://www.w3.org/1999/xlink"><defs><symbol viewBox="0 0 20 12" fill="none" id="arrow">
<path d="M19.2028 6.53033C19.4957 6.23744 19.4957 5.76256 19.2028 5.46967L14.4298 0.696699C14.1369 0.403806 13.6621 0.403806 13.3692 0.696699C13.0763 0.989593 13.0763 1.46447 13.3692 1.75736L17.6118 6L13.3692 10.2426C13.0763 10.5355 13.0763 11.0104 13.3692 11.3033C13.6621 11.5962 14.1369 11.5962 14.4298 11.3033L19.2028 6.53033ZM0 6.75H18.6725V5.25H0V6.75Z" fill="" />
</symbol><symbol viewBox="0 0 20 16" fill="none" id="burger">
<line y1="1.25" x2="19.799" y2="1.25" stroke="#707070" stroke-width="1.5" />
<line y1="8.25" x2="19.799" y2="8.25" stroke="#707070" stroke-width="1.5" />
<line y1="15.25" x2="19.799" y2="15.25" stroke="#707070" stroke-width="1.5" />
</symbol><symbol viewBox="0 0 11 8" fill="none" id="checked">
<path d="M1.5 4L4 6.5L9.5 1" stroke="#E0E2E5" stroke-width="1.5" />
</symbol><symbol viewBox="0 0 31 29" fill="none" id="fb">
<path d="M30.2472 1.94707V26.68C30.2472 27.5302 29.5123 28.213 28.612 28.213H21.0516V17.4509H24.9046L25.4806 13.2553H21.045V10.5741C21.045 9.35763 21.4025 8.53216 23.2628 8.53216H25.6328V4.77723C25.2224 4.72758 23.8189 4.60965 22.1771 4.60965C18.761 4.60965 16.4174 6.5647 16.4174 10.1583V13.2553H12.5512V17.4509H16.4174V28.2192H2.22358C1.32323 28.2192 0.588379 27.5302 0.588379 26.6862V1.94707C0.588379 1.10298 1.32323 0.414062 2.22358 0.414062H28.6053C29.5123 0.414062 30.2472 1.10298 30.2472 1.94707Z" fill="#707070" />
</symbol><symbol viewBox="0 0 31 34" fill="none" id="instagram">
<g clip-path="url(#instagram_clip0)">
<path d="M15.2532 9.64158C10.9747 9.64158 7.52359 13.0097 7.52359 17.1854C7.52359 21.3611 10.9747 24.7292 15.2532 24.7292C19.5318 24.7292 22.9829 21.3611 22.9829 17.1854C22.9829 13.0097 19.5318 9.64158 15.2532 9.64158ZM15.2532 22.0899C12.4883 22.0899 10.228 19.8904 10.228 17.1854C10.228 14.4804 12.4816 12.2809 15.2532 12.2809C18.0249 12.2809 20.2785 14.4804 20.2785 17.1854C20.2785 19.8904 18.0181 22.0899 15.2532 22.0899ZM25.102 9.333C25.102 10.3113 24.2947 11.0926 23.2991 11.0926C22.2967 11.0926 21.4961 10.3047 21.4961 9.333C21.4961 8.3613 22.3034 7.57343 23.2991 7.57343C24.2947 7.57343 25.102 8.3613 25.102 9.333ZM30.2214 11.1188C30.1071 8.7618 29.5554 6.67395 27.7861 4.95377C26.0236 3.2336 23.8843 2.69522 21.4692 2.57704C18.9801 2.43916 11.5196 2.43916 9.0305 2.57704C6.62214 2.68865 4.48287 3.22703 2.71359 4.94721C0.944318 6.66738 0.399409 8.75523 0.278318 11.1123C0.137045 13.5415 0.137045 20.8227 0.278318 23.252C0.392682 25.609 0.944318 27.6969 2.71359 29.417C4.48287 31.1372 6.61541 31.6756 9.0305 31.7938C11.5196 31.9317 18.9801 31.9317 21.4692 31.7938C23.8843 31.6822 26.0236 31.1438 27.7861 29.417C29.5487 27.6969 30.1003 25.609 30.2214 23.252C30.3627 20.8227 30.3627 13.5481 30.2214 11.1188ZM27.0058 25.8585C26.4811 27.1454 25.4652 28.1368 24.14 28.6554C22.1554 29.4236 17.4463 29.2463 15.2532 29.2463C13.0601 29.2463 8.34432 29.417 6.3665 28.6554C5.04796 28.1433 4.03214 27.1519 3.50068 25.8585C2.71359 23.9217 2.89523 19.3258 2.89523 17.1854C2.89523 15.045 2.72032 10.4426 3.50068 8.51231C4.02541 7.22546 5.04123 6.23406 6.3665 5.71538C8.35105 4.94721 13.0601 5.12448 15.2532 5.12448C17.4463 5.12448 22.1621 4.95377 24.14 5.71538C25.4585 6.22749 26.4743 7.21889 27.0058 8.51231C27.7929 10.4491 27.6112 15.045 27.6112 17.1854C27.6112 19.3258 27.7929 23.9282 27.0058 25.8585Z" fill="#707070" />
</g>
<defs>

</defs>
</symbol><clipPath id="instagram_clip0">
<rect width="30.1382" height="33.6157" fill="white" transform="translate(0.176758 0.384766)" />
</clipPath><symbol viewBox="0 0 26 46" fill="none" id="page-scroll">
<path d="M13 2.35696C18.8985 2.35696 23.6716 7.18873 23.6716 13.1597V32.8403C23.6716 38.8113 18.8985 43.643 13 43.643C7.10149 43.643 2.32836 38.8113 2.32836 32.8403V13.1597C2.32836 7.18873 7.10149 2.35696 13 2.35696ZM13 0C5.8209 0 0 5.8924 0 13.1597V32.8403C0 40.1076 5.8209 46 13 46C20.1791 46 26 40.1076 26 32.8403V13.1597C26 5.8924 20.1791 0 13 0Z" fill="#E0E2E5" />
</symbol><symbol viewBox="0 0 31 37" fill="none" id="youtube">
<path d="M15.1254 36.2601C14.4629 36.2601 13.8004 36.3043 13.1379 36.2601C10.6867 36.0172 8.21341 36.2159 5.76221 36.1055C5.18806 36.0834 4.6139 36.0172 4.03975 35.973C3.73059 35.9509 3.44351 35.7301 3.13435 35.708C2.69269 35.6639 2.36145 35.3989 2.0302 35.2001C1.72104 35.0014 1.47813 34.6701 1.23522 34.361C1.03647 34.1181 0.903975 33.831 0.771478 33.5439C0.683146 33.3452 0.705229 33.0802 0.594815 32.9035C0.396069 32.5723 0.550649 32.1748 0.32982 31.8656C0.263571 31.7773 0.307737 31.6006 0.285654 31.4681C0.0427425 30.2315 0.17524 28.9728 0.108991 27.714C0.0648254 27.0736 -0.0455891 26.4111 0.0206596 25.7707C0.153157 24.7108 0.0427425 23.6287 0.153157 22.5687C0.197323 22.0829 0.219406 21.5971 0.307737 21.1333C0.351903 20.8904 0.373986 20.6475 0.440235 20.4046C0.506483 20.1838 0.616898 19.9629 0.705229 19.7421C0.705229 19.72 0.727312 19.6979 0.727312 19.6759C0.727312 19.4109 0.881892 19.2121 1.01439 18.9913C1.1248 18.8146 1.16897 18.6159 1.30147 18.4613C1.54438 18.1521 1.80937 17.8651 2.18478 17.6442C2.53811 17.4234 2.91352 17.2909 3.28893 17.1142C3.31101 17.0922 3.33309 17.0922 3.35518 17.0922C3.88517 17.048 4.41515 16.9817 4.94514 16.9155C7.24176 16.6505 9.53839 16.9376 11.835 16.7609C13.7341 16.6063 15.6553 16.5622 17.5324 16.6947C19.8511 16.8492 22.1698 16.6947 24.4664 16.8272C25.0406 16.8492 25.6368 16.8492 26.211 16.9817C26.8293 17.1363 27.4918 17.2467 28.0438 17.6442C28.3972 17.9092 28.7063 18.2184 28.9934 18.5275C29.1701 18.7263 29.2584 19.0134 29.3688 19.2784C29.5234 19.6317 29.6559 20.0071 29.7884 20.3825V20.4046C29.8326 20.8021 29.8767 21.1996 29.943 21.575C30.1638 22.7454 30.0092 23.9158 30.1196 25.0862C30.1859 25.7707 30.2963 26.4774 30.208 27.162C30.0534 28.2882 30.1638 29.4365 30.0534 30.5627C30.0092 30.9823 30.0313 31.4019 29.8988 31.7994C29.8105 32.0644 29.8326 32.3073 29.7663 32.5723C29.7001 32.7931 29.5897 33.0139 29.5013 33.2127C29.4351 33.3672 29.3909 33.5218 29.3247 33.6985C29.148 34.1843 28.8609 34.6039 28.4855 34.9793C28.1763 35.3105 27.7789 35.4872 27.3814 35.6859C27.1384 35.8184 26.8293 35.7964 26.5643 35.8847C26.0122 36.1055 25.3939 35.9068 24.8639 36.0614C24.3781 36.1939 23.9364 36.1718 23.4506 36.1718C21.684 36.1939 19.8953 36.1718 18.1286 36.2159C17.1128 36.238 16.0749 36.3264 15.0591 36.3926C15.1254 36.3264 15.1254 36.3043 15.1254 36.2601ZM15.9203 19.6317C15.9203 24.1145 15.9203 28.5973 15.9203 33.1023C16.5166 33.1023 17.1128 33.1023 17.687 33.1023C17.7532 33.1023 17.8416 32.9698 17.8636 32.8814C17.9078 32.771 17.8857 32.6385 17.8857 32.5502C18.0845 32.6606 18.2832 32.7048 18.4157 32.8373C18.7028 33.0802 18.9899 33.1464 19.3432 33.1243C19.5419 33.1023 19.7186 33.1023 19.9173 33.1243C20.1823 33.1685 20.3369 32.9918 20.5357 32.8814C20.889 32.6827 21.0215 32.2852 21.1319 31.9539C21.2644 31.6006 21.2865 31.181 21.2865 30.8056C21.3086 29.0832 21.2865 27.3828 21.2865 25.6603C21.2865 25.5941 21.3086 25.5057 21.2644 25.4616C20.9994 25.0641 21.2865 24.5562 20.9994 24.1587C20.889 24.0041 20.8448 23.7833 20.7565 23.6066C20.5577 23.2533 20.1823 23.0987 19.8511 23.0325C19.4315 22.922 18.9457 22.9441 18.5482 23.2533C18.3274 23.4299 18.0845 23.5624 17.8416 23.7391C17.8416 22.3921 17.8416 21.045 17.8416 19.6759C17.2011 19.6317 16.5607 19.6317 15.9203 19.6317ZM27.9776 28.3986C27.9776 28.2661 27.9997 28.1557 27.9997 28.0232C27.9997 27.0736 28.0218 26.1461 27.9997 25.1966C27.9997 24.9095 27.9113 24.6445 27.8451 24.3574C27.823 24.247 27.7568 24.1587 27.6905 24.0704C27.6022 23.9379 27.5359 23.8054 27.4255 23.6949C27.2268 23.4962 27.028 23.2754 26.763 23.1429C26.4318 22.9883 26.0564 22.8558 25.7031 22.7895C25.151 22.7233 24.621 22.8116 24.1131 23.0766C23.8039 23.2312 23.5389 23.3858 23.296 23.6287C23.0752 23.8716 22.9427 24.1145 22.8102 24.4237C22.6998 24.6887 22.5452 24.9537 22.5452 25.2407C22.5231 27.0957 22.5452 28.9728 22.5452 30.8277C22.5452 30.916 22.5452 30.9823 22.5673 31.0485C22.6556 31.2915 22.7881 31.5123 22.8323 31.7331C22.8765 32.0423 23.1194 32.2189 23.2739 32.4618C23.4064 32.6385 23.5831 32.771 23.7818 32.9035C24.0689 33.0802 24.4002 33.2568 24.7535 33.2348C25.2835 33.1906 25.8135 33.3452 26.3435 33.1023C26.5643 32.9918 26.8514 32.9477 27.028 32.771C27.2268 32.5723 27.5139 32.4177 27.5801 32.1085C27.6022 31.976 27.6684 31.8656 27.7347 31.7552C27.9113 31.5123 27.9555 31.2252 27.9997 30.9602C28.0438 30.5406 27.9997 30.099 28.0218 29.6573C28.0218 29.4586 27.9334 29.4144 27.7568 29.4144C27.2709 29.4144 26.8072 29.4144 26.3214 29.4144C26.233 29.4144 26.1447 29.4365 26.0564 29.4586C26.0564 29.9002 26.0785 30.3198 26.0564 30.7394C26.0343 30.916 25.946 31.1369 25.8135 31.2694C25.5926 31.5123 25.0847 31.4902 24.8197 31.2694C24.7756 31.2473 24.7093 31.2031 24.7093 31.181C24.6872 30.8498 24.4885 30.5406 24.5327 30.1873C24.5768 29.6794 24.5548 29.1494 24.5548 28.6194C24.5548 28.5532 24.5548 28.4648 24.5768 28.3765C25.681 28.3986 26.8293 28.3986 27.9776 28.3986ZM12.2546 23.1208C12.2546 23.2533 12.2546 23.3637 12.2546 23.4741C12.2546 25.7707 12.2546 28.0894 12.2546 30.3861C12.2546 30.5186 12.2546 30.629 12.1221 30.7394C11.9233 30.894 11.7467 31.0485 11.5479 31.181C11.3713 31.3135 11.2167 31.2915 11.1063 31.2473C10.9959 31.2031 10.8854 31.0706 10.8854 30.8719C10.8854 28.9286 10.8854 27.0074 10.8854 25.0641C10.8854 24.4899 10.8854 23.9158 10.8854 23.3416C10.8854 23.2312 10.8854 23.0987 10.7309 23.0987C10.1346 23.0987 9.56047 23.0987 8.94215 23.0987C8.94215 23.2312 8.94215 23.3416 8.94215 23.452C8.94215 25.9916 8.94215 28.5311 8.94215 31.0706C8.94215 31.5344 8.83173 31.976 9.07464 32.4398C9.20714 32.6827 9.56047 33.0581 9.84755 33.0802C9.91379 33.0802 9.95796 33.1243 10.0242 33.1464C10.0905 33.1685 10.1788 33.2127 10.223 33.1906C10.3996 33.1685 10.5763 33.1243 10.7529 33.0581C10.9517 32.9918 11.1504 32.9256 11.3271 32.7931C11.6363 32.5943 11.9013 32.3514 12.2546 32.1085C12.2546 32.3294 12.2546 32.5281 12.2546 32.7048C12.2546 33.036 12.2767 33.0581 12.5858 33.0581C13.0054 33.0581 13.4471 33.0581 13.8666 33.0581C14.22 33.0581 14.22 33.0581 14.22 32.6827C14.22 29.569 14.22 26.4553 14.22 23.3637C14.22 23.2754 14.22 23.187 14.22 23.0766C13.5575 23.1208 12.9171 23.1208 12.2546 23.1208ZM4.68015 21.5971C4.68015 21.7296 4.68015 21.84 4.68015 21.9283C4.68015 23.8716 4.68015 25.837 4.68015 27.7803C4.68015 29.4365 4.68015 31.1148 4.68015 32.771C4.68015 33.0139 4.7464 33.1243 5.01139 33.1023C5.54138 33.0802 6.04929 33.0802 6.57928 33.1023C6.82219 33.1023 6.88844 32.9477 6.9326 32.7931C6.95469 32.7048 6.9326 32.6164 6.9326 32.5281C6.9326 29.0611 6.9326 25.572 6.9326 22.105C6.9326 21.9504 6.9326 21.7737 6.9326 21.575C7.66134 21.575 8.36799 21.575 9.05256 21.575C9.05256 20.9125 9.05256 20.2721 9.05256 19.6317C6.88844 19.6317 4.7464 19.6317 2.58227 19.6317C2.58227 20.2942 2.58227 20.9125 2.58227 21.5971C3.26684 21.5971 3.95141 21.5971 4.68015 21.5971Z" fill="#707070" />
<path d="M6.64592 13.8681C6.64592 13.7356 6.64592 13.6472 6.64592 13.5589C6.64592 11.8364 6.64592 10.0919 6.64592 8.36942C6.64592 8.06026 6.55758 7.77318 6.35884 7.50818C6.35884 7.4861 6.33676 7.4861 6.33676 7.46402C6.29259 7.22111 6.22634 6.97819 6.18218 6.75737C6.13801 6.5807 6.09384 6.42612 6.0276 6.27154C5.93926 6.02863 5.82885 5.78572 5.7626 5.54281C5.69635 5.29989 5.65219 5.05698 5.58594 4.83615C5.51969 4.61532 5.43136 4.3945 5.34303 4.17367C5.34303 4.15158 5.32094 4.1295 5.32094 4.10742C5.25469 3.84242 5.21053 3.57743 5.14428 3.31243C5.07803 3.0916 4.96762 2.89286 4.87929 2.67203C4.87929 2.64995 4.8572 2.64995 4.8572 2.62786C4.81304 2.38495 4.76887 2.14204 4.70262 1.89913C4.63637 1.65622 4.52596 1.41331 4.43763 1.17039C4.43763 1.14831 4.41554 1.14831 4.41554 1.12623C4.30513 0.794984 4.2168 0.463741 4.12847 0.15458C4.10638 0.110414 4.12847 0.0441658 4.12847 0C4.83512 0 5.49761 0 6.18218 0C6.24842 0.331243 6.29259 0.662487 6.38092 0.99373C6.44717 1.23664 6.55758 1.47955 6.668 1.72247V1.74455C6.73425 2.03163 6.77841 2.3187 6.84466 2.5837C6.91091 2.89286 7.02133 3.17994 7.10966 3.46701C7.10966 3.4891 7.13174 3.51118 7.15382 3.53326C7.19799 3.82034 7.24215 4.10742 7.3084 4.37241C7.37465 4.63741 7.50715 4.9024 7.5734 5.1674C7.61756 5.29989 7.61756 5.43239 7.61756 5.56489C7.63965 5.56489 7.68381 5.58697 7.7059 5.58697C7.77214 5.45447 7.86048 5.29989 7.88256 5.1674C7.94881 4.88032 7.92672 4.52699 8.05922 4.28408C8.16964 4.08534 8.14755 3.90867 8.19172 3.73201C8.25797 3.46701 8.36838 3.20202 8.45671 2.93702C8.45671 2.91494 8.45671 2.89286 8.4788 2.89286C8.52296 2.56162 8.56713 2.25245 8.65546 1.92121C8.72171 1.63413 8.83212 1.36914 8.92045 1.10414C8.92045 1.08206 8.94254 1.05998 8.94254 1.0379C9.00879 0.706653 9.07503 0.353326 9.14128 0C9.82585 0 10.5104 0 11.2612 0C11.195 0.110414 11.1508 0.198746 11.1067 0.287078C11.1067 0.30916 11.0846 0.309161 11.0846 0.331243C11.0183 0.574155 10.9962 0.817067 10.9079 1.0379C10.8196 1.30289 10.7313 1.56789 10.6429 1.83288C10.5988 1.78871 10.5988 1.78871 10.5988 1.8108C10.5325 2.05371 10.5104 2.3187 10.4221 2.56162C10.3558 2.80453 10.2233 3.04744 10.1571 3.31243C10.0908 3.55535 10.0467 3.79826 9.98043 4.01909C9.91418 4.28408 9.80377 4.52699 9.71544 4.7699C9.71544 4.79199 9.69336 4.79199 9.69336 4.81407C9.64919 5.05698 9.60502 5.29989 9.53877 5.54281C9.47253 5.78572 9.38419 6.00655 9.29586 6.24946C9.27378 6.27154 9.2517 6.31571 9.2517 6.33779C9.20753 6.5807 9.16337 6.8457 9.09712 7.08861C8.96462 7.4861 8.81004 7.90568 8.67754 8.30317C8.65546 8.36942 8.65546 8.45775 8.65546 8.54608C8.65546 10.2244 8.65546 11.8806 8.65546 13.5589C8.65546 13.8018 8.61129 13.8681 8.3463 13.8681C7.79423 13.846 7.24215 13.8681 6.64592 13.8681Z" fill="#707070" />
<path d="M16.6488 8.63523C16.6488 9.89395 16.6709 10.9098 16.6267 11.9256C16.6267 12.1906 16.45 12.4335 16.3838 12.6985C16.2513 13.1622 15.8096 13.3389 15.5667 13.6922C15.5005 13.8026 15.3238 13.8247 15.1913 13.8689C14.7938 14.0235 14.3521 14.0455 13.9326 14.0235C13.7117 14.0235 13.4688 14.0455 13.248 14.0014C13.0051 13.9572 12.7622 13.8026 12.5193 13.7585C12.3205 13.7143 12.188 13.5597 12.0334 13.4493C11.7022 13.2064 11.5476 12.8531 11.3489 12.5218V12.4997C11.2826 12.1243 11.1943 11.7268 11.1943 11.3514C11.1722 9.65104 11.1722 7.95066 11.1943 6.25028C11.1943 5.89695 11.3268 5.54362 11.4593 5.1903C11.6139 4.74864 11.9009 4.4174 12.2543 4.13032C12.3647 4.04199 12.4751 3.95366 12.6076 3.88741C12.8063 3.82116 13.0272 3.82116 13.2259 3.71074C13.5351 3.53408 13.8663 3.53408 14.1755 3.57825C14.5509 3.6445 14.9263 3.77699 15.2796 3.90949C15.6992 4.08615 15.9863 4.43948 16.2513 4.77072C16.3617 4.9253 16.45 5.12405 16.4942 5.30071C16.8475 6.49319 16.5163 7.68567 16.6488 8.63523ZM14.8159 8.85606C14.8159 8.08316 14.8159 7.28817 14.8159 6.51527C14.8159 6.07361 14.7717 5.67612 14.2417 5.49946C13.9105 5.38904 13.6897 5.36696 13.4468 5.60987C13.3363 5.72029 13.1818 5.80862 13.1597 5.94112C13.0934 6.31653 13.0493 6.69194 13.0272 7.08943C13.0051 7.3765 13.0051 7.66358 13.0272 7.95066C13.0934 9.12105 12.9168 10.3135 13.1155 11.506C13.1597 11.7931 13.2701 11.9918 13.4468 12.1906C13.7117 12.4777 14.2417 12.4556 14.5067 12.1685C14.7055 11.9477 14.8159 11.6827 14.8159 11.3514C14.8159 10.4902 14.8159 9.67313 14.8159 8.85606Z" fill="#707070" />
<path d="M20.2928 3.73204C20.2928 3.84246 20.2928 3.95287 20.2928 4.06329C20.2928 6.64699 20.2928 9.2086 20.2928 11.7923C20.2928 12.0573 20.6903 12.4106 20.9112 12.3223C21.132 12.234 21.3087 12.1015 21.5074 11.991C21.5516 11.969 21.5957 11.9248 21.6178 11.8806C21.8386 11.6819 21.9932 11.4611 21.9932 11.1077C21.9711 8.76694 21.9932 6.40407 21.9932 4.06329C21.9932 3.73204 22.0153 3.73204 22.3245 3.70996C22.8103 3.70996 23.274 3.70996 23.7599 3.70996C23.7599 7.11073 23.7599 10.4673 23.7599 13.846C23.2078 13.846 22.6778 13.846 22.1478 13.846C22.1036 13.846 22.0153 13.7135 21.9932 13.6252C21.9711 13.4264 21.9932 13.2277 21.9932 13.0289C21.9932 12.9627 21.9711 12.8744 21.9491 12.7639C21.6841 13.0069 21.4853 13.2277 21.2424 13.4044C20.9995 13.6031 20.7345 13.7356 20.4474 13.8902C20.1162 14.0448 19.807 14.0006 19.4758 14.0006C19.1887 14.0227 18.8795 13.7798 18.7691 13.4927C18.7029 13.3381 18.5925 13.1835 18.5041 13.0289C18.482 12.9627 18.46 12.8964 18.46 12.8302C18.46 9.82692 18.46 6.82365 18.46 3.82038C18.46 3.79829 18.46 3.77621 18.482 3.73204C19.0783 3.73204 19.6745 3.73204 20.2928 3.73204Z" fill="#707070" />
<path d="M19.2103 28.1338C19.2103 29.0613 19.2103 29.9888 19.2103 30.8942C19.2103 31.3138 19.0999 31.4242 18.6803 31.4242C18.3933 31.4242 18.1062 31.4463 17.9516 31.1371C17.9074 31.0709 17.8633 31.0046 17.8633 30.9384C17.8633 28.9951 17.8633 27.0739 17.8633 25.1306C17.8633 25.0422 17.9295 24.9318 17.9958 24.8656C18.2608 24.5785 18.6583 24.5122 18.9453 24.7772C19.0778 24.9097 19.2103 25.1306 19.2103 25.3293C19.2324 26.2568 19.2103 27.2064 19.2103 28.1338Z" fill="#707070" />
<path d="M26.056 26.7199C25.526 26.7199 25.0402 26.7199 24.5102 26.7199C24.5102 26.2562 24.4439 25.7703 24.5323 25.3287C24.5764 25.0195 24.8193 24.7324 25.1727 24.6441C25.4377 24.5779 25.7689 24.8429 25.9014 25.0858C26.1885 25.6158 25.9456 26.1678 26.056 26.7199Z" fill="#707070" />
</symbol></defs></svg>