<svg width="45" height="45" viewBox="0 0 45 45" fill="none" xmlns="http://www.w3.org/2000/svg">
<path d="M30.255 5.69556C23.4845 -1.07495 12.465 -1.07495 5.69451 5.69556C-1.07454 12.4675 -1.07454 23.4856 5.69451 30.2576C11.7238 36.2854 21.1142 36.9312 27.8803 32.2243C28.0227 32.898 28.3485 33.5408 28.8725 34.0648L38.7325 43.9248C40.1694 45.3588 42.4913 45.3588 43.9208 43.9248C45.3562 42.4894 45.3562 40.1675 43.9208 38.7365L34.0608 28.8735C33.5398 28.354 32.8954 28.0267 32.2218 27.8843C36.9316 21.1167 36.2858 11.7278 30.255 5.69556ZM27.142 27.1446C22.0873 32.1994 13.8608 32.1994 8.8075 27.1446C3.75567 22.0898 3.75567 13.8648 8.8075 8.81003C13.8608 3.75673 22.0873 3.75673 27.142 8.81003C32.1968 13.8648 32.1968 22.0898 27.142 27.1446Z" fill="white"/>
</svg>
