<svg width="21" height="35" viewBox="0 0 21 35" fill="none" xmlns="http://www.w3.org/2000/svg">
<path d="M17.547 14.877C19.0006 14.877 20.1914 15.9615 20.1914 17.2854V31.7355C20.1914 33.0592 19.0006 34.1439 17.547 34.1439H3.00251C1.54899 34.1439 0.358063 33.0592 0.358063 31.7355V17.2854C0.358063 15.9615 1.54899 14.877 3.00251 14.877H17.547ZM17.547 16.0812H3.00251C2.25863 16.0812 1.68029 16.6078 1.68029 17.2854V31.7355C1.68029 32.413 2.25863 32.9397 3.00251 32.9397H17.547C18.291 32.9397 18.8692 32.413 18.8692 31.7355V17.2854C18.8692 16.6078 18.291 16.0812 17.547 16.0812Z" fill="#3C3C3B" stroke="#3C3C3B" stroke-width="0.5"/>
<path fill-rule="evenodd" clip-rule="evenodd" d="M14.9024 11.8662C15.6249 11.8662 16.2246 12.4125 16.2246 13.0706V15.4792H14.9024V13.0706H5.64684V15.4792H4.32462V13.0706C4.32462 12.4125 4.92451 11.8662 5.64684 11.8662H14.9024Z" fill="#3C3C3B" stroke="#3C3C3B" stroke-width="0.5"/>
<path fill-rule="evenodd" clip-rule="evenodd" d="M13.5801 11.8662V15.4792H12.2579V11.8662H13.5801Z" fill="#3C3C3B" stroke="#3C3C3B" stroke-width="0.5"/>
<path fill-rule="evenodd" clip-rule="evenodd" d="M10.9355 11.8662V15.4792H9.61333V11.8662H10.9355Z" fill="#3C3C3B" stroke="#3C3C3B" stroke-width="0.5"/>
<path fill-rule="evenodd" clip-rule="evenodd" d="M8.29199 11.8662V15.4792H6.96978V11.8662H8.29199Z" fill="#3C3C3B" stroke="#3C3C3B" stroke-width="0.5"/>
<path fill-rule="evenodd" clip-rule="evenodd" d="M11.5973 0.426759C11.7607 0.426505 11.9185 0.481345 12.0401 0.58079C12.1618 0.680235 12.2386 0.817221 12.2559 0.965244L13.5781 12.4048L12.2636 12.5319L11.0034 1.63082H9.54944L8.28923 12.5319L6.97467 12.4048L8.29689 0.965244C8.31412 0.817634 8.39061 0.681012 8.51168 0.581624C8.63275 0.482235 8.78986 0.4271 8.95285 0.426759H11.5973Z" fill="#3C3C3B" stroke="#3C3C3B" stroke-width="0.5"/>
<path d="M10.2988 19.0917C10.4018 19.0947 10.5027 19.1197 10.5933 19.1646C10.6838 19.2095 10.7616 19.273 10.8204 19.3501C10.8204 19.3501 11.6599 20.4558 12.5016 21.7773C12.9225 22.4381 13.3457 23.1553 13.6715 23.8305C13.9972 24.5057 14.2422 25.1171 14.2422 25.7145C14.2422 27.7025 12.4584 29.327 10.2755 29.327C8.09266 29.327 6.30885 27.7025 6.30885 25.7145C6.30885 25.1171 6.5565 24.5057 6.88216 23.8305C7.20796 23.1553 7.6312 22.4381 8.05207 21.7773C8.89379 20.4558 9.73327 19.3501 9.73327 19.3501C9.79629 19.2674 9.88108 19.2004 9.97987 19.1553C10.0787 19.1101 10.1883 19.0883 10.2988 19.0917ZM10.2776 20.8202C9.97605 21.233 9.7354 21.5344 9.19554 22.3819C8.79001 23.0185 8.38687 23.7056 8.09281 24.3151C7.79875 24.9247 7.63056 25.4807 7.63056 25.7146C7.63056 27.0517 8.80668 28.1229 10.275 28.1229C11.7433 28.1229 12.9195 27.0517 12.9195 25.7146C12.9195 25.4807 12.7539 24.9247 12.4598 24.3151C12.1658 23.7056 11.7626 23.0185 11.3571 22.3819C10.8176 21.5349 10.5793 21.2332 10.2777 20.8202H10.2776Z" fill="#3C3C3B" stroke="#3C3C3B" stroke-width="0.5"/>
</svg>
