<svg width="29" height="25" viewBox="0 0 29 25" fill="none" xmlns="http://www.w3.org/2000/svg">
<path d="M28.1573 0.952148H0.390625V24.7524H28.1573V0.952148ZM26.3925 2.84607V7.51773H2.15546V2.84607H26.3925ZM2.15546 22.8585V9.41165H26.3925V22.8585H2.15546Z" fill="#3C3C3B"/>
<path d="M4.92065 6.69769C5.7004 6.69769 6.33251 6.01925 6.33251 5.18234C6.33251 4.34544 5.7004 3.66699 4.92065 3.66699C4.1409 3.66699 3.50879 4.34544 3.50879 5.18234C3.50879 6.01925 4.1409 6.69769 4.92065 6.69769Z" fill="#3C3C3B"/>
<path d="M8.56811 6.69769C9.34786 6.69769 9.97997 6.01925 9.97997 5.18234C9.97997 4.34544 9.34786 3.66699 8.56811 3.66699C7.78836 3.66699 7.15625 4.34544 7.15625 5.18234C7.15625 6.01925 7.78836 6.69769 8.56811 6.69769Z" fill="#3C3C3B"/>
<path d="M12.3914 6.69769C13.1711 6.69769 13.8032 6.01925 13.8032 5.18234C13.8032 4.34544 13.1711 3.66699 12.3914 3.66699C11.6116 3.66699 10.9795 4.34544 10.9795 5.18234C10.9795 6.01925 11.6116 6.69769 12.3914 6.69769Z" fill="#3C3C3B"/>
<path d="M6.86133 12.1264L10.1851 16.0089L6.86133 19.8915L8.15554 21.1541L12.5676 16.0089L8.15554 10.8638L6.86133 12.1264Z" fill="#3C3C3B"/>
<path d="M21.7748 18.8184H12.833V20.712H21.7748V18.8184Z" fill="#3C3C3B"/>
</svg>
