<svg width="31" height="28" viewBox="0 0 31 28" fill="none" xmlns="http://www.w3.org/2000/svg">
    <path d="M21.56 27.3689H3.38151C3.03923 27.3689 2.76172 27.0902 2.76172 26.7464V24.7456C2.76172 22.9756 4.19529 21.5356 5.95752 21.5356H19.0809C20.7895 21.5356 22.1798 22.9321 22.1798 24.6484V26.7464C22.1798 27.0902 21.9023 27.3689 21.56 27.3689ZM4.0013 26.1239H20.9403V24.6484C20.9403 23.6185 20.1062 22.7807 19.0809 22.7807H5.95752C4.87894 22.7807 4.0013 23.6623 4.0013 24.7456V26.1239Z" fill="#fff" stroke="#fff" stroke-width="0.5"/>
    <path d="M9.44993 22.7809C9.23567 22.7809 9.02746 22.6693 8.91246 22.4696L1.68559 9.89418C1.51491 9.59689 1.61568 9.21723 1.91105 9.04457L1.9855 9.0011C2.28117 8.82784 2.66037 8.92936 2.83287 9.22665C2.89098 9.32727 2.91791 9.43731 2.9167 9.54583L9.9862 21.8471C10.1572 22.145 10.0555 22.5256 9.75922 22.6976C9.66147 22.7541 9.55494 22.7809 9.44993 22.7809Z" fill="#fff" stroke="#fff" stroke-width="0.5"/>
    <path d="M16.5282 22.7809C16.314 22.7809 16.1058 22.6693 15.9911 22.4696L8.38015 9.23421C8.20886 8.93662 8.31025 8.55574 8.60683 8.38399C8.9025 8.21073 9.2823 8.31378 9.45329 8.61167L17.0642 21.8471C17.2355 22.1446 17.1341 22.5255 16.8375 22.6973C16.7401 22.7541 16.6333 22.7809 16.5282 22.7809Z" fill="#fff" stroke="#fff" stroke-width="0.5"/>
    <path d="M5.03642 11.2582C3.85252 11.2582 2.72824 10.8087 1.87058 9.99188C0.938472 9.12981 0.400391 7.89415 0.400391 6.60803C0.400391 4.0437 2.48008 1.95752 5.03642 1.95752C6.72935 1.95752 8.2867 2.88555 9.10078 4.37929C9.4703 5.04925 9.6664 5.82074 9.6664 6.60803C9.6664 7.35095 9.49935 8.05252 9.16948 8.693C9.06084 8.91915 8.93766 9.12373 8.80057 9.30307C7.95532 10.519 6.54202 11.2582 5.03642 11.2582ZM5.03642 3.2026C3.16373 3.2026 1.63998 4.73038 1.63998 6.60803C1.63998 7.54731 2.03249 8.4489 2.71705 9.08239C3.34985 9.68487 4.1712 10.0132 5.03642 10.0132C6.13771 10.0132 7.1712 9.47269 7.80098 8.56715C7.90387 8.43188 7.98104 8.30208 8.06094 8.13611C8.30637 7.65918 8.42682 7.15002 8.42682 6.60803C8.42682 6.03139 8.28428 5.46843 8.01494 4.97994C7.41693 3.88259 6.27631 3.2026 5.03642 3.2026Z" fill="#fff" stroke="#fff" stroke-width="0.5"/>
    <path d="M14.8542 5.30096H8.55729C8.21501 5.30096 7.9375 5.02206 7.9375 4.67807C7.9375 4.33408 8.21501 4.05518 8.55729 4.05518H14.8542C15.1964 4.05518 15.474 4.33408 15.474 4.67807C15.474 5.02206 15.1964 5.30096 14.8542 5.30096Z" fill="#fff" stroke="#fff" stroke-width="0.5"/>
    <path d="M14.854 9.54657H8.91667C8.57439 9.54657 8.29688 9.26767 8.29688 8.92368C8.29688 8.57968 8.57439 8.30078 8.91667 8.30078H14.854C15.1963 8.30078 15.4738 8.57968 15.4738 8.92368C15.4738 9.26767 15.1963 9.54657 14.854 9.54657Z" fill="#fff" stroke="#fff" stroke-width="0.5"/>
    <path d="M18.4367 10.8653H15.4988C14.8015 10.8653 14.2344 10.2957 14.2344 9.59532V3.96145C14.2344 3.25775 14.8015 2.68506 15.4988 2.68506H18.4367C18.6728 2.68506 18.9043 2.75254 19.1068 2.87991C19.4796 3.1167 19.7011 3.52069 19.7011 3.96145V9.59532C19.7011 9.84883 19.627 10.0911 19.4872 10.2963C19.2729 10.6437 18.8747 10.8653 18.4367 10.8653ZM15.4988 3.93014L15.474 9.59532L18.4367 9.62025L18.4616 3.96145C18.4616 3.94777 18.461 3.9426 18.4461 3.93348L15.4988 3.93014Z" fill="#fff" stroke="#fff" stroke-width="0.5"/>
    <path d="M29.4933 4.49765C29.4204 4.49765 29.3462 4.48458 29.2742 4.45722L22.554 1.90376L19.0906 3.94464C18.7959 4.11823 18.4155 4.01912 18.2427 3.7227C18.0693 3.42629 18.1682 3.04474 18.4636 2.87084L22.1823 0.679168C22.3442 0.583706 22.54 0.567897 22.715 0.633565L29.7124 3.29221C30.0326 3.41413 30.1942 3.77348 30.0732 4.09482C29.9793 4.34412 29.7436 4.49735 29.4933 4.49765Z" fill="#fff" stroke="#fff" stroke-width="0.5"/>
    <path d="M22.57 12.6212C22.4638 12.6212 22.3581 12.5938 22.2634 12.5397L18.6688 10.4852C18.3713 10.3152 18.2675 9.9349 18.4366 9.63605C18.6055 9.33751 18.9841 9.23292 19.2819 9.40287L22.6196 11.3106L29.3045 8.68569C29.6247 8.55983 29.9827 8.71913 30.1073 9.03866C30.232 9.35909 30.0747 9.72026 29.756 9.84522L22.7958 12.5783C22.7228 12.6069 22.6462 12.6212 22.57 12.6212Z" fill="#fff" stroke="#fff" stroke-width="0.5"/>
    <path d="M5.03313 8.80461C3.82684 8.80461 2.8457 7.81912 2.8457 6.60778C2.8457 5.39613 3.82684 4.41064 5.03313 4.41064C6.23912 4.41064 7.22025 5.39613 7.22025 6.60778C7.22025 7.81912 6.23912 8.80461 5.03313 8.80461ZM5.03313 5.65573C4.51048 5.65573 4.08528 6.08281 4.08528 6.60778C4.08528 7.13244 4.51048 7.55953 5.03313 7.55953C5.55547 7.55953 5.98067 7.13244 5.98067 6.60778C5.98067 6.08281 5.55547 5.65573 5.03313 5.65573Z" fill="#fff" stroke="#fff" stroke-width="0.5"/>
</svg>
