<svg width="30" height="31" viewBox="0 0 30 31" fill="none" xmlns="http://www.w3.org/2000/svg">
    <path d="M4.5305 6.91273H7.58003V8.77565H6.31302C6.06148 8.77565 5.85795 8.97854 5.85795 9.22877V12.444C5.85795 12.6942 6.06148 12.8971 6.31302 12.8971H8.34886V14.7673C8.34886 15.0175 8.5524 15.2204 8.80393 15.2204H11.0415V20.1184C11.0415 20.2428 11.0926 20.3616 11.1833 20.4472L14.8195 23.8808V27.7177H15.7296V23.8808L19.3653 20.4472C19.456 20.3616 19.5071 20.2428 19.5071 20.1184V15.2204H21.7447C21.9962 15.2204 22.1997 15.0175 22.1997 14.7673V12.8971H24.236C24.4876 12.8971 24.6911 12.6942 24.6911 12.444V9.22877C24.6911 8.97854 24.4876 8.77565 24.236 8.77565H22.969V6.91273H26.0186C26.1874 6.91273 26.3421 6.81981 26.4207 6.67135L29.1121 1.60121L28.3077 1.17773L25.7444 6.0065C20.7478 6.0065 9.46467 6.0065 4.8047 6.0065L2.2409 1.17773L1.43652 1.60121L4.12831 6.67135C4.20697 6.81981 4.36162 6.91273 4.5305 6.91273ZM6.7681 9.68189C6.8875 9.68189 8.61024 9.68189 8.56351 9.68189V11.9908H6.7681V9.68189ZM21.0749 11.9908H19.4831V9.68189H21.0749V11.9908ZM18.5729 11.9908H16.9806V9.68189H18.5729V11.9908ZM16.0705 11.9908H14.4781V9.68189H16.0705V11.9908ZM13.568 11.9908H11.9761V9.68189H13.568V11.9908ZM11.066 11.9908H9.47366V9.68189H11.066V11.9908ZM18.5969 19.9237L15.2745 23.0613L11.9517 19.9237V15.2204H18.5969V19.9237ZM21.2896 14.3142C17.6869 14.3142 12.8519 14.3142 9.25901 14.3142V12.8971H21.2896V14.3142ZM23.781 11.9908H21.9851V9.68189C22.6335 9.68189 23.8277 9.68189 23.781 9.68189V11.9908ZM22.0589 6.91273V8.77565H8.49018V6.91273H22.0589Z" fill="#fff" stroke="#fff" stroke-width="0.8"/>
    <path d="M29.1573 29.0298H1.39062V29.9366H29.1573V29.0298Z" fill="#fff" stroke="#fff" stroke-width="0.8"/>
</svg>
