<svg width="31" height="27" viewBox="0 0 31 27" fill="none" xmlns="http://www.w3.org/2000/svg">
    <path d="M29.6412 6.91824H0.909627C0.628407 6.91824 0.400391 6.68465 0.400391 6.39654V1.25022C0.400391 0.962112 0.628407 0.728516 0.909627 0.728516H29.6412C29.9224 0.728516 30.1504 0.962115 30.1504 1.25022V6.39654C30.1504 6.68465 29.9224 6.91824 29.6412 6.91824ZM1.41886 5.87484H29.1319V1.77192H1.41886V5.87484Z" fill="#fff" stroke="#fff" stroke-width="0.8"/>
    <path d="M27.8932 26.5124H2.65767C2.37645 26.5124 2.14844 26.2788 2.14844 25.9907V6.3967C2.14844 6.1086 2.37645 5.875 2.65767 5.875H27.8932C28.1745 5.875 28.4025 6.1086 28.4025 6.3967V25.9907C28.4025 26.2788 28.1745 26.5124 27.8932 26.5124ZM3.16691 25.469H27.384V6.9184H3.16691V25.469Z" fill="#fff" stroke="#fff" stroke-width="0.8"/>
    <path d="M19.0854 12.9511H11.4655C10.4082 12.9511 9.54785 12.0775 9.54785 11.0039C9.54785 9.93023 10.4082 9.05664 11.4655 9.05664H19.0854C20.1337 9.05664 20.9861 9.93023 20.9861 11.0039C20.9861 12.0775 20.1337 12.9511 19.0854 12.9511ZM11.4655 10.1C10.9697 10.1 10.5663 10.5055 10.5663 11.0039C10.5663 11.5022 10.9697 11.9077 11.4655 11.9077H19.0854C19.5636 11.9077 19.9676 11.4938 19.9676 11.0039C19.9676 10.5139 19.5636 10.1 19.0854 10.1H11.4655Z" fill="#fff" stroke="#fff" stroke-width="0.8"/>
    <path d="M21.4273 23.3306H9.12349C8.84227 23.3306 8.61426 23.097 8.61426 22.8089V16.6545C8.61426 16.3664 8.84227 16.1328 9.12349 16.1328H21.4273C21.7085 16.1328 21.9366 16.3664 21.9366 16.6545V22.8089C21.9366 23.097 21.7085 23.3306 21.4273 23.3306ZM9.63273 22.2872H20.9181V17.1762H9.63273V22.2872Z" fill="#fff" stroke="#fff" stroke-width="0.8"/>
</svg>
