<svg width="44" height="44" viewBox="0 0 44 44" fill="none" xmlns="http://www.w3.org/2000/svg">
<path d="M5.46413 26.848L5.4642 16.8149L38.8835 16.815L38.8835 26.8481L5.46413 26.848ZM6.42249 17.7751L6.42248 25.8877L37.9252 25.8879L37.9252 17.7752L6.42249 17.7751Z" fill="#3C3C3B" stroke="#3C3C3B" stroke-width="0.7"/>
<path d="M10.0868 17.297L9.12891 17.293L9.12875 22.3738L10.0866 22.3779L10.0868 17.297Z" fill="#3C3C3B" stroke="#3C3C3B" stroke-width="0.7"/>
<path d="M14.2752 17.297L13.3174 17.293L13.3172 22.3738L14.2751 22.3779L14.2752 17.297Z" fill="#3C3C3B" stroke="#3C3C3B" stroke-width="0.7"/>
<path d="M18.4647 17.2975L17.5068 17.2935L17.5067 22.3743L18.4645 22.3783L18.4647 17.2975Z" fill="#3C3C3B" stroke="#3C3C3B" stroke-width="0.7"/>
<path d="M22.6522 17.297L21.6943 17.293L21.6942 22.3738L22.652 22.3779L22.6522 17.297Z" fill="#3C3C3B" stroke="#3C3C3B" stroke-width="0.7"/>
<path d="M26.8407 17.298L25.8828 17.2939L25.8827 22.3748L26.8405 22.3788L26.8407 17.298Z" fill="#3C3C3B" stroke="#3C3C3B" stroke-width="0.7"/>
<path d="M31.0291 17.298L30.0713 17.2939L30.0711 22.3748L31.029 22.3788L31.0291 17.298Z" fill="#3C3C3B" stroke="#3C3C3B" stroke-width="0.7"/>
<path d="M35.2186 17.298L34.2607 17.2939L34.2606 22.3748L35.2184 22.3788L35.2186 17.298Z" fill="#3C3C3B" stroke="#3C3C3B" stroke-width="0.7"/>
</svg>
