<svg width="36" height="35" viewBox="0 0 36 35" fill="none" xmlns="http://www.w3.org/2000/svg">
<path d="M18.0333 28.1245C17.5887 28.1245 17.154 28.2564 16.7843 28.5034C16.4146 28.7505 16.1264 29.1016 15.9563 29.5124C15.7861 29.9233 15.7416 30.3753 15.8284 30.8115C15.9151 31.2476 16.1292 31.6482 16.4436 31.9626C16.758 32.2771 17.1586 32.4912 17.5947 32.578C18.0308 32.6647 18.4829 32.6202 18.8937 32.45C19.3045 32.2798 19.6556 31.9917 19.9026 31.6219C20.1497 31.2522 20.2815 30.8175 20.2815 30.3728C20.2815 29.7765 20.0447 29.2047 19.623 28.783C19.2014 28.3614 18.6296 28.1245 18.0333 28.1245ZM18.0333 31.497C17.811 31.497 17.5937 31.4311 17.4088 31.3075C17.224 31.184 17.0799 31.0084 16.9948 30.803C16.9097 30.5976 16.8875 30.3716 16.9308 30.1535C16.9742 29.9355 17.0813 29.7351 17.2385 29.5779C17.3957 29.4207 17.596 29.3136 17.814 29.2703C18.0321 29.2269 18.2581 29.2492 18.4635 29.3342C18.6689 29.4193 18.8445 29.5634 18.968 29.7483C19.0915 29.9331 19.1574 30.1505 19.1574 30.3728C19.1574 30.671 19.039 30.9569 18.8282 31.1677C18.6174 31.3786 18.3315 31.497 18.0333 31.497Z" fill="#3C3C3B" stroke="#3C3C3B" stroke-width="0.4"/>
<path d="M29.2727 20.8193C29.9396 20.8193 30.5916 20.6215 31.1462 20.2509C31.7007 19.8803 32.133 19.3536 32.3882 18.7374C32.6435 18.1211 32.7102 17.443 32.5801 16.7888C32.45 16.1346 32.1288 15.5337 31.6572 15.062C31.1856 14.5904 30.5847 14.2692 29.9305 14.139C29.2764 14.0089 28.5983 14.0757 27.9821 14.3309C27.3659 14.5862 26.8393 15.0185 26.4687 15.5731C26.0982 16.1277 25.9004 16.7797 25.9004 17.4467C25.9013 18.3409 26.2569 19.1982 26.8891 19.8305C27.5213 20.4628 28.3785 20.8184 29.2727 20.8193ZM29.2727 15.1984C29.7173 15.1984 30.152 15.3303 30.5217 15.5773C30.8914 15.8244 31.1795 16.1755 31.3497 16.5863C31.5199 16.9972 31.5644 17.4492 31.4776 17.8854C31.3909 18.3215 31.1768 18.7221 30.8623 19.0366C30.5479 19.351 30.1474 19.5651 29.7112 19.6519C29.2751 19.7387 28.8231 19.6941 28.4123 19.524C28.0015 19.3538 27.6504 19.0656 27.4034 18.6959C27.1563 18.3261 27.0245 17.8914 27.0245 17.4467C27.0245 16.8504 27.2613 16.2786 27.683 15.8569C28.1046 15.4353 28.6764 15.1984 29.2727 15.1984Z" fill="#3C3C3B" stroke="#3C3C3B" stroke-width="0.4"/>
<path d="M34.8924 17.4463C34.8908 15.9563 34.2982 14.5277 33.2447 13.4741C32.1911 12.4205 30.7627 11.8278 29.2727 11.8262C29.1665 11.8262 29.0637 11.8363 28.9592 11.8419L18.2019 5.56709C17.5275 4.21394 16.5226 3.05285 15.2803 2.19133C14.0379 1.32981 12.5983 0.79573 11.0947 0.638541C9.59109 0.481352 8.07212 0.706139 6.67847 1.29209C5.28482 1.87803 4.06155 2.80619 3.12193 3.99061C2.18231 5.17504 1.55672 6.57742 1.30311 8.0679C1.0495 9.55838 1.17605 11.0888 1.67106 12.5173C2.16607 13.9459 3.01352 15.2265 4.13494 16.2404C5.25635 17.2544 6.61548 17.9689 8.08644 18.318L14.2445 29.3294C14.0972 29.8622 14.0639 30.4201 14.1469 30.9666C14.2299 31.5131 14.4272 32.036 14.7259 32.5011C15.0247 32.9662 15.4182 33.363 15.8808 33.6656C16.3433 33.9683 16.8645 34.1699 17.4103 34.2574C17.9561 34.3449 18.5141 34.3163 19.0481 34.1734C19.5821 34.0305 20.0799 33.7765 20.509 33.4281C20.9382 33.0798 21.289 32.6447 21.5386 32.1515C21.7882 31.6583 21.931 31.118 21.9576 30.5658L29.8252 23.0383C31.2125 22.8997 32.4989 22.251 33.4352 21.2178C34.3714 20.1846 34.8907 18.8406 34.8924 17.4463ZM16.7178 26.6694L12.1006 18.3551C14.024 17.9275 15.7538 16.8804 17.0245 15.3745C18.2953 13.8687 19.0366 11.9873 19.1348 10.0193L25.2164 13.5684C24.6581 14.1491 24.2316 14.8434 23.966 15.604C23.7005 16.3645 23.6022 17.1735 23.6778 17.9755C23.7535 18.7775 24.0013 19.5538 24.4044 20.2513C24.8074 20.9488 25.3562 21.5511 26.0133 22.0171L20.4858 27.3034C19.9648 26.8827 19.3443 26.6034 18.684 26.4924C18.0237 26.3813 17.3459 26.4423 16.7161 26.6694H16.7178ZM27.0338 22.5982C27.4301 22.77 27.845 22.8953 28.2702 22.9714L21.7811 29.1794C21.6599 28.8035 21.483 28.4479 21.2562 28.1245L27.0338 22.5982ZM33.7685 17.4463C33.7685 18.3355 33.5048 19.2048 33.0108 19.9442C32.5168 20.6836 31.8147 21.2598 30.9932 21.6001C30.1717 21.9404 29.2678 22.0295 28.3957 21.856C27.5236 21.6825 26.7225 21.2543 26.0938 20.6255C25.465 19.9967 25.0368 19.1956 24.8634 18.3234C24.6899 17.4513 24.7789 16.5473 25.1192 15.7257C25.4595 14.9042 26.0357 14.202 26.775 13.7079C27.5144 13.2139 28.3836 12.9502 29.2727 12.9502C30.4647 12.9516 31.6074 13.4257 32.4502 14.2686C33.2931 15.1115 33.7672 16.2543 33.7685 17.4463ZM27.3148 12.1853C26.8944 12.3403 26.4941 12.545 26.1223 12.7951L19.1129 8.70592C19.0627 8.21047 18.9708 7.72015 18.8381 7.2402L27.3148 12.1853ZM2.29815 9.57816C2.29815 8.02199 2.75957 6.50076 3.62407 5.20685C4.48858 3.91295 5.71733 2.90447 7.15494 2.30895C8.59255 1.71343 10.1745 1.55761 11.7006 1.8612C13.2268 2.1648 14.6287 2.91417 15.729 4.01454C16.8293 5.11492 17.5786 6.51689 17.8822 8.04316C18.1857 9.56943 18.0299 11.1514 17.4344 12.5892C16.839 14.0269 15.8306 15.2557 14.5367 16.1203C13.2429 16.9848 11.7218 17.4463 10.1657 17.4463C8.07981 17.4441 6.07995 16.6144 4.60497 15.1393C3.13 13.6642 2.30038 11.6642 2.29815 9.57816ZM9.49755 18.5366C9.71897 18.5529 9.94039 18.5703 10.1657 18.5703C10.4181 18.5703 10.6665 18.5529 10.9137 18.5327L15.7242 27.1949C15.3829 27.443 15.0837 27.7443 14.838 28.0874L9.49755 18.5366ZM18.0333 33.1826C17.4776 33.1826 16.9343 33.0178 16.4723 32.709C16.0102 32.4002 15.65 31.9613 15.4374 31.4479C15.2247 30.9344 15.169 30.3694 15.2775 29.8243C15.3859 29.2792 15.6535 28.7785 16.0465 28.3855C16.4394 27.9925 16.9401 27.7249 17.4851 27.6165C18.0302 27.508 18.5952 27.5637 19.1086 27.7764C19.622 27.9891 20.0609 28.3492 20.3696 28.8113C20.6784 29.2734 20.8432 29.8167 20.8432 30.3725C20.8423 31.1175 20.546 31.8317 20.0192 32.3585C19.4925 32.8853 18.7783 33.1817 18.0333 33.1826Z" fill="#3C3C3B" stroke="#3C3C3B" stroke-width="0.4"/>
<path d="M16.9092 9.57858C16.9092 8.24473 16.5137 6.94082 15.7727 5.83176C15.0317 4.7227 13.9784 3.85829 12.7462 3.34784C11.514 2.83739 10.158 2.70384 8.8499 2.96406C7.54176 3.22428 6.34016 3.8666 5.39705 4.80978C4.45393 5.75296 3.81166 6.95465 3.55146 8.26287C3.29125 9.5711 3.4248 10.9271 3.93521 12.1594C4.44562 13.3918 5.30997 14.4451 6.41895 15.1861C7.52794 15.9272 8.83175 16.3227 10.1655 16.3227C11.9535 16.3208 13.6676 15.6096 14.9319 14.3453C16.1961 13.0809 16.9072 11.3666 16.9092 9.57858ZM4.54582 9.57858C4.54582 8.46704 4.87541 7.38045 5.49291 6.45623C6.11041 5.53201 6.98809 4.81167 8.01495 4.3863C9.04182 3.96093 10.1718 3.84963 11.2619 4.06648C12.352 4.28333 13.3533 4.8186 14.1393 5.60458C14.9252 6.39056 15.4604 7.39197 15.6772 8.48216C15.8941 9.57235 15.7828 10.7024 15.3574 11.7293C14.9321 12.7562 14.2118 13.634 13.2877 14.2515C12.3635 14.8691 11.277 15.1987 10.1655 15.1987C8.67559 15.197 7.24714 14.6044 6.1936 13.5508C5.14005 12.4972 4.54745 11.0686 4.54582 9.57858Z" fill="#3C3C3B" stroke="#3C3C3B" stroke-width="0.4"/>
<path d="M11.8527 9.57858C11.8527 9.24503 11.7538 8.91896 11.5686 8.64162C11.3833 8.36428 11.12 8.14811 10.8119 8.02047C10.5038 7.89282 10.1647 7.85942 9.83765 7.9245C9.51058 7.98957 9.21014 8.15019 8.97433 8.38605C8.73852 8.62191 8.57793 8.92242 8.51287 9.24956C8.44781 9.57671 8.4812 9.91581 8.60882 10.224C8.73644 10.5321 8.95255 10.7955 9.22984 10.9809C9.50712 11.1662 9.83312 11.2651 10.1666 11.2651C10.6138 11.2651 11.0427 11.0874 11.3589 10.7711C11.6751 10.4548 11.8527 10.0259 11.8527 9.57858ZM10.1666 10.1407C10.0554 10.1407 9.94678 10.1078 9.85435 10.046C9.76192 9.98423 9.68988 9.89644 9.64734 9.79371C9.6048 9.69099 9.59367 9.57796 9.61536 9.46891C9.63705 9.35986 9.69057 9.25969 9.76918 9.18107C9.84778 9.10245 9.94793 9.04891 10.057 9.02722C10.166 9.00553 10.279 9.01666 10.3817 9.05921C10.4844 9.10176 10.5722 9.17381 10.6339 9.26626C10.6957 9.35871 10.7286 9.4674 10.7286 9.57858C10.7286 9.72768 10.6694 9.87067 10.564 9.97609C10.4586 10.0815 10.3157 10.1407 10.1666 10.1407Z" fill="#3C3C3B" stroke="#3C3C3B" stroke-width="0.4"/>
<path d="M11.8527 6.20703C11.8527 5.87347 11.7538 5.5474 11.5686 5.27005C11.3833 4.9927 11.12 4.77654 10.8119 4.64889C10.5038 4.52124 10.1647 4.48784 9.83765 4.55291C9.51058 4.61799 9.21014 4.77862 8.97433 5.01448C8.73852 5.25034 8.57793 5.55085 8.51287 5.87801C8.44781 6.20516 8.4812 6.54426 8.60882 6.85244C8.73644 7.16061 8.95255 7.42401 9.22984 7.60932C9.50712 7.79464 9.83312 7.89355 10.1666 7.89355C10.6138 7.89355 11.0427 7.71587 11.3589 7.39958C11.6751 7.0833 11.8527 6.65433 11.8527 6.20703ZM10.1666 6.76921C10.0554 6.76921 9.94678 6.73624 9.85435 6.67446C9.76192 6.61269 9.68988 6.52489 9.64734 6.42217C9.6048 6.31944 9.59367 6.20641 9.61536 6.09736C9.63705 5.98831 9.69057 5.88814 9.76918 5.80951C9.84778 5.73089 9.94793 5.67735 10.057 5.65566C10.166 5.63397 10.279 5.6451 10.3817 5.68765C10.4844 5.7302 10.5722 5.80226 10.6339 5.8947C10.6957 5.98715 10.7286 6.09584 10.7286 6.20703C10.7286 6.35613 10.6694 6.49912 10.564 6.60455C10.4586 6.70998 10.3157 6.76921 10.1666 6.76921Z" fill="#3C3C3B" stroke="#3C3C3B" stroke-width="0.4"/>
<path d="M6.79453 7.89209C6.46105 7.89209 6.13505 7.991 5.85777 8.17632C5.58048 8.36163 5.36437 8.62502 5.23675 8.93319C5.10913 9.24136 5.07574 9.58045 5.1408 9.9076C5.20586 10.2347 5.36645 10.5353 5.60226 10.7711C5.83807 11.007 6.13851 11.1676 6.46558 11.2327C6.79266 11.2977 7.13169 11.2643 7.43979 11.1367C7.74789 11.0091 8.01123 10.7929 8.1965 10.5155C8.38178 10.2382 8.48067 9.91214 8.48067 9.57858C8.48067 9.1313 8.30302 8.70233 7.98681 8.38605C7.6706 8.06977 7.24172 7.89209 6.79453 7.89209ZM6.79453 10.1407C6.68337 10.1407 6.57471 10.1078 6.48228 10.046C6.38985 9.98423 6.31781 9.89644 6.27527 9.79371C6.23273 9.69099 6.2216 9.57796 6.24329 9.46891C6.26497 9.35986 6.3185 9.25969 6.39711 9.18107C6.47571 9.10245 6.57586 9.04891 6.68488 9.02722C6.79391 9.00553 6.90692 9.01666 7.00962 9.05921C7.11232 9.10176 7.2001 9.17381 7.26186 9.26626C7.32361 9.35871 7.35658 9.4674 7.35658 9.57858C7.35658 9.72768 7.29736 9.87067 7.19196 9.97609C7.08655 10.0815 6.9436 10.1407 6.79453 10.1407Z" fill="#3C3C3B" stroke="#3C3C3B" stroke-width="0.4"/>
<path d="M11.8518 12.9507C11.8518 12.6171 11.7529 12.291 11.5676 12.0137C11.3823 11.7363 11.119 11.5202 10.8109 11.3925C10.5028 11.2649 10.1638 11.2315 9.83668 11.2966C9.5096 11.3616 9.20916 11.5223 8.97335 11.7581C8.73754 11.994 8.57695 12.2945 8.51189 12.6216C8.44683 12.9488 8.48022 13.2879 8.60784 13.596C8.73546 13.9042 8.95158 14.1676 9.22886 14.3529C9.50614 14.5382 9.83214 14.6371 10.1656 14.6371C10.6128 14.6371 11.0417 14.4595 11.3579 14.1432C11.6741 13.8269 11.8518 13.3979 11.8518 12.9507ZM9.60358 12.9507C9.60358 12.8395 9.63654 12.7308 9.6983 12.6383C9.76006 12.5459 9.84784 12.4738 9.95054 12.4313C10.0532 12.3887 10.1662 12.3776 10.2753 12.3993C10.3843 12.421 10.4844 12.4745 10.563 12.5531C10.6417 12.6318 10.6952 12.7319 10.7169 12.841C10.7386 12.95 10.7274 13.0631 10.6849 13.1658C10.6423 13.2685 10.5703 13.3563 10.4779 13.4181C10.3855 13.4798 10.2768 13.5128 10.1656 13.5128C10.0166 13.5128 9.8736 13.4536 9.7682 13.3482C9.66279 13.2427 9.60358 13.0997 9.60358 12.9507Z" fill="#3C3C3B" stroke="#3C3C3B" stroke-width="0.4"/>
<path d="M13.5377 11.2641C13.8712 11.2641 14.1972 11.1652 14.4745 10.9799C14.7517 10.7946 14.9679 10.5312 15.0955 10.223C15.2231 9.91483 15.2565 9.57574 15.1914 9.24859C15.1264 8.92144 14.9658 8.62094 14.73 8.38508C14.4942 8.14922 14.1937 7.98859 13.8666 7.92352C13.5396 7.85845 13.2005 7.89184 12.8924 8.01949C12.5843 8.14714 12.321 8.3633 12.1357 8.64064C11.9505 8.91798 11.8516 9.24405 11.8516 9.57761C11.8516 10.0249 12.0292 10.4539 12.3454 10.7701C12.6616 11.0864 13.0905 11.2641 13.5377 11.2641ZM13.5377 9.01544C13.6489 9.01544 13.7575 9.04841 13.8499 9.11018C13.9424 9.17196 14.0144 9.25975 14.057 9.36248C14.0995 9.4652 14.1106 9.57823 14.0889 9.68728C14.0673 9.79633 14.0137 9.8965 13.9351 9.97512C13.8565 10.0537 13.7564 10.1073 13.6473 10.129C13.5383 10.1507 13.4253 10.1395 13.3226 10.097C13.2199 10.0544 13.1321 9.98238 13.0704 9.88993C13.0086 9.79748 12.9756 9.68879 12.9756 9.57761C12.9756 9.42851 13.0349 9.28552 13.1403 9.1801C13.2457 9.07467 13.3886 9.01544 13.5377 9.01544Z" fill="#3C3C3B" stroke="#3C3C3B" stroke-width="0.4"/>
<path d="M20.8434 6.20734H21.9674C21.9665 5.46213 21.6702 4.74769 21.1434 4.22075C20.6165 3.69381 19.9023 3.39738 19.1572 3.39648V4.52083C19.6044 4.52083 20.0333 4.69851 20.3495 5.01479C20.6657 5.33107 20.8434 5.76005 20.8434 6.20734Z" fill="#3C3C3B" stroke="#3C3C3B" stroke-width="0.4"/>
<path d="M23.0915 6.2077H24.2156C24.2141 4.86649 23.6807 3.58063 22.7324 2.63225C21.7841 1.68387 20.4983 1.15041 19.1572 1.14893V2.2731C20.2003 2.27444 21.2002 2.6894 21.9377 3.427C22.6753 4.16459 23.0902 5.16459 23.0915 6.2077Z" fill="#3C3C3B" stroke="#3C3C3B" stroke-width="0.4"/>
<path d="M6.23249 18.5703H5.1084C5.10929 19.3155 5.40565 20.0299 5.93248 20.5569C6.4593 21.0838 7.17357 21.3802 7.91862 21.3811V20.2568C7.47143 20.2568 7.04255 20.0791 6.72634 19.7628C6.41013 19.4466 6.23249 19.0176 6.23249 18.5703Z" fill="#3C3C3B" stroke="#3C3C3B" stroke-width="0.4"/>
<path d="M3.98444 18.5703H2.86035C2.86184 19.9115 3.39525 21.1974 4.34356 22.1458C5.29188 23.0941 6.57763 23.6276 7.91875 23.6291V22.5049C6.87571 22.5036 5.87579 22.0886 5.13825 21.351C4.40071 20.6134 3.98578 19.6134 3.98444 18.5703Z" fill="#3C3C3B" stroke="#3C3C3B" stroke-width="0.4"/>
</svg>
