<svg width="59" height="48" viewBox="0 0 59 48" fill="none" xmlns="http://www.w3.org/2000/svg">
<path d="M58.3501 0.813477H0.480469V47.2872H58.3501V0.813477ZM54.672 4.51165V13.6338H4.15862V4.51165H54.672ZM4.15862 43.5891V17.332H54.672V43.5891H4.15862Z" fill="white"/>
<path d="M9.921 12.0322C11.5461 12.0322 12.8635 10.7074 12.8635 9.07324C12.8635 7.43904 11.5461 6.11426 9.921 6.11426C8.29591 6.11426 6.97852 7.43904 6.97852 9.07324C6.97852 10.7074 8.29591 12.0322 9.921 12.0322Z" fill="white"/>
<path d="M17.5226 12.0322C19.1477 12.0322 20.465 10.7074 20.465 9.07324C20.465 7.43904 19.1477 6.11426 17.5226 6.11426C15.8975 6.11426 14.5801 7.43904 14.5801 9.07324C14.5801 10.7074 15.8975 12.0322 17.5226 12.0322Z" fill="white"/>
<path d="M25.4914 12.0322C27.1165 12.0322 28.434 10.7074 28.434 9.07324C28.434 7.43904 27.1165 6.11426 25.4914 6.11426C23.8663 6.11426 22.5488 7.43904 22.5488 9.07324C22.5488 10.7074 23.8663 12.0322 25.4914 12.0322Z" fill="white"/>
<path d="M13.9668 22.6324L20.894 30.2137L13.9668 37.7949L16.6641 40.2604L25.8595 30.2137L16.6641 20.167L13.9668 22.6324Z" fill="white"/>
<path d="M45.0481 35.6997H26.4121V39.3975H45.0481V35.6997Z" fill="white"/>
</svg>
