<svg width="57" height="55" viewBox="0 0 57 55" fill="none" xmlns="http://www.w3.org/2000/svg">
<path d="M21.7136 1.59997C21.6729 1.6067 21.6329 1.61808 21.5948 1.63388L2.57239 10.3827C2.26646 10.5227 2.16624 10.9812 2.38556 11.2374L8.6018 18.5509L2.38556 25.8473C2.1665 26.1035 2.26668 26.5616 2.57239 26.7017L8.77164 29.5553V43.6943C8.77327 43.903 8.90482 44.105 9.09434 44.1898L28.6432 52.9386C28.7817 53.0006 28.9463 53.0006 29.0848 52.9386L48.6677 44.1898C48.8572 44.105 48.9888 43.903 48.9904 43.6943V29.5553L55.1896 26.7017C55.4953 26.5616 55.5955 26.1035 55.3765 25.8473L49.1602 18.5509L55.3765 11.2374C55.5956 10.9812 55.4954 10.523 55.1896 10.383L36.1673 1.63415C36.0714 1.59374 35.9639 1.58181 35.8615 1.60024C35.7448 1.62157 35.6355 1.68263 35.5558 1.77112L28.881 8.99888L22.2062 1.77085C22.0842 1.63616 21.8922 1.56955 21.7136 1.59997ZM21.6967 2.79611L27.9639 9.59698L9.45104 17.8844L3.67639 11.0836L21.6967 2.79611ZM36.0654 2.79611L54.0857 11.0836L48.311 17.8844L29.7982 9.59698L36.0654 2.79611ZM28.881 10.4001L47.1051 18.5509L28.881 26.6846L10.6569 18.5509L28.881 10.4001ZM9.45101 19.2002L27.9639 27.4878L21.6967 34.2886L3.67636 26.0011L9.45101 19.2002ZM48.311 19.2002L54.0857 26.0011L36.0653 34.2886L29.7982 27.4878L48.311 19.2002ZM28.3375 28.6668V51.5888L9.85863 43.3184V30.0509L21.5948 35.4506C21.8001 35.5368 22.0565 35.4795 22.2062 35.3139L28.3375 28.6668ZM29.4245 28.6668L35.5558 35.3139C35.7055 35.4795 35.9619 35.5368 36.1673 35.4506L47.9034 30.0509V43.3184L29.4245 51.5716V28.6668Z" fill="white" stroke="white" stroke-width="3"/>
</svg>
