<svg width="61" height="50" viewBox="0 0 61 50" fill="none" xmlns="http://www.w3.org/2000/svg">
<path d="M30.6544 48.842C21.1808 48.842 11.7101 48.1135 8.13125 46.6564C7.89529 46.5605 7.70525 46.3769 7.59948 46.1431C5.38407 41.2561 3.74226 39.6248 2.75486 39.1184C1.6425 38.5466 1.08052 37.8286 1.084 36.9866C1.08749 36.1072 1.72038 35.3436 2.96524 34.7168C3.45633 34.4724 4.05493 34.67 4.30076 35.1646C4.5466 35.6593 4.34726 36.2604 3.85559 36.5083C3.43134 36.7211 3.22677 36.8907 3.13319 36.9878C3.21282 37.0638 3.36915 37.1842 3.66031 37.3339C5.47821 38.2683 7.30481 40.7568 9.23778 44.9362C16.4762 47.489 44.832 47.489 52.071 44.9362C54.004 40.7579 55.83 38.2694 57.6479 37.3339C57.9396 37.1842 58.0954 37.0638 58.1756 36.9866C58.0814 36.8895 57.878 36.7211 57.4538 36.5083C56.9621 36.2604 56.7633 35.6593 57.0086 35.1646C57.2539 34.6712 57.8513 34.4712 58.3441 34.7168C59.589 35.3436 60.2213 36.1072 60.2248 36.9866C60.2283 37.8286 59.6669 38.5466 58.5545 39.1184C57.7455 39.5336 56.0415 40.9988 53.7099 46.1431C53.6041 46.3769 53.4135 46.5605 53.1775 46.6564C49.5999 48.1135 40.1257 48.842 30.6544 48.842Z" fill="white" stroke="white" stroke-width="1.5"/>
<path d="M3.41155 36.6138C2.86177 36.6138 2.41602 36.1659 2.41602 35.6128V30.7925C2.41602 29.2301 3.68005 27.959 5.23349 27.959H6.00934C6.55912 27.959 7.00487 28.4069 7.00487 28.96C7.00487 29.5131 6.55912 29.961 6.00934 29.961H5.2335C4.78542 29.961 4.40708 30.3422 4.40708 30.7925V35.6128C4.40708 36.1659 3.96133 36.6138 3.41155 36.6138Z" fill="white" stroke="white" stroke-width="1.5"/>
<path d="M54.4906 37.1901C53.9408 37.1901 53.4956 36.7422 53.4956 36.189C53.4956 19.8225 48.7138 10.376 38.8793 7.30919C38.3539 7.14548 38.0599 6.58415 38.2226 6.05617C38.3853 5.52817 38.9455 5.23407 39.4674 5.39603C50.2469 8.75693 55.4855 18.8291 55.4855 36.189C55.4855 36.7422 55.0404 37.1901 54.4906 37.1901Z" fill="white" stroke="white" stroke-width="1.5"/>
<path d="M57.8999 36.6138C57.3502 36.6138 56.905 36.1659 56.905 35.6128V30.7925C56.905 30.3574 56.5098 29.961 56.0774 29.961H55.2684C54.7186 29.961 54.2734 29.5131 54.2734 28.96C54.2734 28.4069 54.7186 27.959 55.2684 27.959H56.0774C57.6047 27.959 58.8949 29.2559 58.8949 30.7925V35.6128C58.8949 36.1659 58.4497 36.6138 57.8999 36.6138Z" fill="white" stroke="white" stroke-width="1.5"/>
<path d="M6.78614 37.1901C6.73674 37.1901 6.68677 37.1866 6.63621 37.1795C5.51286 37.0076 4.35638 36.803 3.23361 36.5984C2.69256 36.499 2.334 35.9774 2.43221 35.4336C2.53042 34.8887 3.05113 34.5332 3.58927 34.6267C4.69345 34.829 5.83016 35.0314 6.93376 35.1986C7.47713 35.2816 7.85139 35.7926 7.76886 36.3387C7.69447 36.8346 7.27024 37.1901 6.78614 37.1901Z" fill="white" stroke="white" stroke-width="1.5"/>
<path d="M34.4513 18.0127H26.8602C25.9339 18.0127 25.1063 17.6133 24.531 16.8889C23.9486 16.2071 23.7278 15.3079 23.9318 14.384L26.2233 3.2969C26.5237 1.88601 27.7285 0.904297 29.1546 0.904297H32.1569C33.583 0.904297 34.7884 1.88601 35.0871 3.29105L37.3826 14.3969C37.5384 15.3277 37.3222 16.1966 36.7852 16.8836C36.2052 17.6133 35.3776 18.0127 34.4513 18.0127ZM29.1546 2.90748C28.6688 2.90748 28.2736 3.23024 28.1713 3.71087L25.8781 14.805C25.8066 15.1284 25.8665 15.3804 26.0635 15.6119C26.2872 15.892 26.533 16.0095 26.8602 16.0095H34.4513C34.7779 16.0095 35.0243 15.892 35.2254 15.6388C35.416 15.395 35.4834 15.1079 35.4265 14.7653L33.1402 3.70502C33.0391 3.23024 32.6427 2.90749 32.1569 2.90749H29.1546V2.90748Z" fill="white" stroke="white" stroke-width="1.5"/>
<path d="M21.0573 12.6156C20.9899 12.6156 20.9219 12.6086 20.8533 12.5945C20.3151 12.4817 19.9699 11.9514 20.0815 11.4099L21.431 4.89274C21.7361 3.45903 22.9135 2.49951 24.3624 2.49951H27.1968C27.7466 2.49951 28.1923 2.94799 28.1923 3.50112C28.1923 4.05426 27.7466 4.50273 27.1968 4.50273H24.3624C23.8614 4.50273 23.4843 4.81029 23.3791 5.30613L22.0307 11.8181C21.9325 12.2905 21.5187 12.6156 21.0573 12.6156Z" fill="white" stroke="white" stroke-width="1.5"/>
<path d="M40.2517 12.6156C39.7902 12.6156 39.3764 12.2905 39.2788 11.8181L37.9293 5.30086C37.827 4.82608 37.4318 4.50273 36.946 4.50273H34.1122C33.5624 4.50273 33.1172 4.05426 33.1172 3.50112C33.1172 2.94799 33.5624 2.49951 34.1122 2.49951H36.946C38.371 2.49951 39.5752 3.48124 39.8762 4.8863L41.2269 11.4099C41.3396 11.9514 40.9944 12.4817 40.4563 12.5946C40.3877 12.6086 40.3191 12.6156 40.2517 12.6156Z" fill="white" stroke="white" stroke-width="1.5"/>
<path d="M6.78461 37.1901C6.23482 37.1901 5.78906 36.7422 5.78906 36.189C5.78906 18.8256 11.0405 8.75288 21.8428 5.39608C22.3658 5.23529 22.9249 5.52823 23.0871 6.05739C23.2492 6.58538 22.9551 7.14611 22.4298 7.30924C12.5719 10.3731 7.78016 19.8196 7.78016 36.189C7.78016 36.7422 7.3344 37.1901 6.78461 37.1901Z" fill="white" stroke="white" stroke-width="1.5"/>
<path d="M54.4901 37.1899C54.0043 37.1899 53.5789 36.8321 53.5069 36.3339C53.4267 35.7878 53.8032 35.279 54.3472 35.1983C55.334 35.0522 56.2963 34.8803 57.2773 34.706L57.7259 34.6265C58.2792 34.5294 58.7836 34.8943 58.8789 35.4381C58.9742 35.9831 58.6128 36.5023 58.0723 36.5982L57.6248 36.6777C56.6241 36.8567 55.6431 37.0309 54.6354 37.1794C54.5866 37.1864 54.5378 37.1899 54.4901 37.1899Z" fill="white" stroke="white" stroke-width="1.5"/>
<path d="M30.6543 40.6399C24.2172 40.6399 17.7808 39.923 11.5228 38.4893C10.987 38.3665 10.651 37.8297 10.7731 37.2906C10.8951 36.7515 11.4298 36.417 11.9645 36.5363C24.1911 39.3383 37.1163 39.3395 49.344 36.5363C49.8799 36.4206 50.4122 36.7515 50.5354 37.2906C50.6575 37.8297 50.3216 38.3665 49.7857 38.4893C43.5277 39.923 37.0907 40.6399 30.6543 40.6399Z" fill="white" stroke="white" stroke-width="1.5"/>
</svg>
