<svg width="52" height="52" viewBox="0 0 52 52" fill="none" xmlns="http://www.w3.org/2000/svg">
<path d="M25.9363 1.50195C22.8804 1.50195 19.9621 2.07339 17.269 3.10879C16.1429 2.88221 15.0213 2.74482 13.9385 2.71688C10.6718 2.63259 7.70972 3.47717 5.68019 5.51905C2.97745 8.23823 2.34603 12.7089 3.24556 17.2568C2.22695 19.9541 1.64844 22.8601 1.64844 25.9181C1.64844 28.976 2.22695 31.9016 3.24556 34.5989C2.34579 39.1471 2.97729 43.6173 5.68019 46.3367C8.38623 49.0592 12.7585 49.6821 17.2885 48.7665C19.9749 49.7961 22.8894 50.3538 25.9363 50.3538C28.9816 50.3538 31.8934 49.795 34.5841 48.7665C34.5906 48.7666 34.5971 48.7666 34.6036 48.7665C34.6101 48.7666 34.6166 48.7666 34.6231 48.7665C39.1531 49.6821 43.5254 49.0592 46.2314 46.3367C48.9225 43.6293 49.5679 39.1852 48.6855 34.6577C49.7232 31.945 50.3021 28.9971 50.3021 25.9181C50.3021 22.839 49.7232 19.9107 48.6855 17.198C49.5673 12.6712 48.922 8.22603 46.2314 5.51905C44.2019 3.47717 41.2398 2.63259 37.9732 2.71688C36.8843 2.74497 35.7556 2.8799 34.6231 3.10879C31.9212 2.07049 28.9968 1.50195 25.9363 1.50195ZM25.9363 2.75607C26.905 2.75607 27.8619 2.81633 28.7995 2.93243V8.53677C28.7983 8.61986 28.8136 8.70236 28.8444 8.77947C28.8751 8.85658 28.9209 8.92676 28.9789 8.98593C29.0369 9.04511 29.106 9.0921 29.1822 9.12417C29.2584 9.15624 29.3401 9.17276 29.4227 9.17276C29.5053 9.17276 29.5871 9.15624 29.6633 9.12417C29.7395 9.0921 29.8086 9.04511 29.8666 8.98593C29.9246 8.92676 29.9703 8.85658 30.0011 8.77947C30.0319 8.70236 30.0472 8.61986 30.046 8.53677V3.12839C39.5227 4.83191 46.9855 12.33 48.6661 21.8618L40.3104 21.8226C40.278 21.82 40.2454 21.82 40.213 21.8226C38.4424 15.5812 32.7275 11.0254 25.9558 11.0254C24.9807 11.0254 24.0347 11.1189 23.1122 11.2997L23.1706 2.93243C24.0791 2.82338 24.998 2.75607 25.9363 2.75607ZM21.9241 3.12839L21.8656 11.4957C21.8631 11.5283 21.8631 11.5611 21.8656 11.5937C15.6713 13.3811 11.1338 19.1314 11.1338 25.9377C11.1338 26.9134 11.248 27.8545 11.4259 28.779L3.08974 28.7398C2.97983 27.8188 2.91445 26.8688 2.91445 25.9181C2.91445 24.954 2.97677 24.0094 3.08974 23.0767H8.66018C8.74277 23.0779 8.82477 23.0625 8.90141 23.0315C8.97805 23.0005 9.04781 22.9545 9.10663 22.8962C9.16544 22.8379 9.21215 22.7683 9.24403 22.6917C9.27591 22.615 9.29232 22.5327 9.29232 22.4496C9.29232 22.3665 9.27591 22.2843 9.24403 22.2076C9.21215 22.1309 9.16544 22.0614 9.10663 22.0031C9.04781 21.9447 8.97805 21.8987 8.90141 21.8677C8.82477 21.8368 8.74277 21.8214 8.66018 21.8226H3.28451C4.97226 12.2835 12.4345 4.80309 21.9241 3.12839ZM13.1789 3.971C13.8103 3.95524 14.4615 3.98499 15.1266 4.04938C10.3905 6.42329 6.53302 10.3127 4.18046 15.0817C3.85793 11.5557 4.62575 8.3631 6.55666 6.42045C8.13295 4.83456 10.4806 4.03833 13.1789 3.971ZM37.9926 3.971C41.0029 3.89868 43.6354 4.69038 45.355 6.42045C47.2788 8.35597 48.0446 11.532 47.7312 15.0425C45.3629 10.2875 41.5061 6.4163 36.7656 4.04938C37.1789 4.00891 37.5915 3.98063 37.9926 3.971ZM25.9558 12.2795C33.4673 12.2795 39.5313 18.3806 39.5313 25.9377C39.5313 33.4948 33.4673 39.6154 25.9558 39.6154C18.4444 39.6154 12.3608 33.4948 12.3608 25.9377C12.3608 18.3806 18.4444 12.2795 25.9558 12.2795ZM40.5052 23.0767L48.8608 23.1159C48.9715 24.0362 49.0361 24.9673 49.0361 25.9181C49.0361 26.8821 48.9745 27.8455 48.8608 28.779H43.2514C43.1688 28.7778 43.0868 28.7932 43.0102 28.8242C42.9336 28.8552 42.8638 28.9012 42.805 28.9595C42.7462 29.0179 42.6995 29.0874 42.6676 29.164C42.6357 29.2407 42.6193 29.323 42.6193 29.4061C42.6193 29.4892 42.6357 29.5714 42.6676 29.6481C42.6995 29.7248 42.7462 29.7943 42.805 29.8526C42.8638 29.911 42.9336 29.957 43.0102 29.988C43.0868 30.019 43.1688 30.0343 43.2514 30.0331H48.6661C46.9687 39.5771 39.4794 47.1143 29.9876 48.8057L30.046 40.3012C36.2442 38.5063 40.7779 32.7467 40.7779 25.9377C40.7779 24.9619 40.6831 24.0002 40.5052 23.0767ZM3.28451 29.9939L11.6012 30.0331C11.6401 30.0368 11.6792 30.0368 11.7181 30.0331C13.4895 36.2832 19.185 40.8891 25.9558 40.8891C26.9245 40.8891 27.8826 40.7943 28.7995 40.6147L28.741 48.9821C27.8215 49.0944 26.8857 49.1584 25.9363 49.1584C24.9777 49.1584 24.0396 49.0965 23.1122 48.9821V43.3385C23.1157 43.2475 23.0995 43.1568 23.0647 43.0728C23.0298 42.9887 22.9772 42.9133 22.9105 42.8517C22.8438 42.7902 22.7645 42.744 22.6783 42.7164C22.592 42.6888 22.5008 42.6804 22.411 42.6919C22.2561 42.7114 22.1142 42.7887 22.0132 42.9084C21.9122 43.0281 21.8596 43.1816 21.8656 43.3385V48.7861C12.3914 47.0779 4.95559 39.5421 3.28451 29.9939ZM4.18046 36.7936C6.5389 41.566 10.4203 45.4364 15.1655 47.8063C11.6421 48.1557 8.50929 47.3997 6.55666 45.4353C4.62221 43.489 3.85334 40.323 4.18046 36.7936ZM47.7312 36.8132C48.0537 40.3348 47.2859 43.4926 45.355 45.4353C43.4023 47.3997 40.2695 48.1557 36.7461 47.8063C41.4938 45.4401 45.3602 41.5735 47.7312 36.8132Z" fill="white" stroke="white" stroke-width="2"/>
</svg>
