<svg width="50" height="51" viewBox="0 0 50 51" fill="none" xmlns="http://www.w3.org/2000/svg">
<path d="M25.0932 0.501953C11.4832 0.501953 0.451172 11.6011 0.451172 25.2939C0.451172 38.9867 11.4832 50.0858 25.0932 50.0858C38.7031 50.0858 49.7352 38.9867 49.7352 25.2939C49.7352 11.6011 38.7031 0.501953 25.0932 0.501953ZM25.0932 4.3161C36.5896 4.3161 45.9441 13.7275 45.9441 25.2939C45.9441 36.8603 36.5896 46.2717 25.0932 46.2717C13.5967 46.2717 4.24225 36.8603 4.24225 25.2939C4.24225 13.7275 13.5967 4.3161 25.0932 4.3161Z" fill="white"/>
<path d="M21.0737 34.7359L21.0755 34.7378L37.1705 18.5467L34.4883 15.8481L21.0737 29.3465L15.6998 23.9399L13.0195 26.6365L21.0718 34.7378L21.0737 34.7359Z" fill="white"/>
</svg>
