<svg width="48" height="54" viewBox="0 0 48 54" fill="none" xmlns="http://www.w3.org/2000/svg">
<path d="M24.4298 1.51025L24.1701 1.59779L2.70633 10.0015L2.25195 10.1985L2.27359 10.7018C3.4075 29.8701 12.0498 45.0105 24.0836 51.8889L24.4298 52.0858L24.776 51.8889C36.8098 45.0105 45.4521 29.8701 46.586 10.7018L46.6076 10.1985L46.1533 10.0015L24.6894 1.59779L24.4298 1.51025ZM24.4298 3.0203L45.1363 11.1176C43.9141 29.4623 35.6627 43.8012 24.4298 50.4226C13.1969 43.8012 4.94548 29.4623 3.72326 11.1176L24.4298 3.0203ZM32.9331 17.88L21.6603 29.9604L16.6189 24.8612L15.6236 25.8679L21.1626 31.4704L21.6819 31.9738L22.1579 31.4485L33.9284 18.8429L32.9331 17.88Z" fill="white" stroke="white" stroke-width="2.5"/>
</svg>
