<svg width="50" height="52" viewBox="0 0 50 52" fill="none" xmlns="http://www.w3.org/2000/svg">
<path d="M1.09961 49.8243C1.09961 49.4936 1.22451 48.5173 1.32557 48.0579C1.80791 45.8654 2.90166 43.892 4.4908 42.3471C6.20984 40.6759 8.24635 39.6621 10.654 39.2791C11.4171 39.1577 13.1727 39.1577 13.9358 39.2791C16.3435 39.6621 18.38 40.6759 20.099 42.3471C21.6882 43.892 22.7819 45.8654 23.2643 48.0579C23.3653 48.5173 23.4902 49.4936 23.4902 49.8243V50.0913H22.764H22.0377L22.0051 49.7606C21.943 49.1302 21.8316 48.4476 21.7153 47.9844C20.9047 44.7559 18.5123 42.1507 15.3956 41.1025C14.2818 40.7279 13.4298 40.5875 12.2706 40.5875C11.1113 40.5875 10.2593 40.7279 9.14559 41.1025C6.0289 42.1507 3.63649 44.7559 2.82588 47.9844C2.70957 48.4476 2.59818 49.1302 2.53605 49.7606L2.50344 50.0913H1.80153H1.09961V49.8243ZM26.0213 49.8243C26.0213 49.4936 26.1462 48.5173 26.2473 48.0579C26.7296 45.8654 27.8234 43.892 29.4125 42.3471C31.1316 40.6759 33.1681 39.6621 35.5758 39.2791C36.3389 39.1577 38.0945 39.1577 38.8576 39.2791C41.2652 39.6621 43.3018 40.6759 45.0208 42.3471C46.6099 43.892 47.7037 45.8654 48.186 48.0579C48.2871 48.5173 48.412 49.4936 48.412 49.8243V50.0913H47.6857H46.9595L46.9269 49.7606C46.8647 49.1302 46.7533 48.4476 46.637 47.9844C45.8264 44.7559 43.434 42.1507 40.3173 41.1025C39.2036 40.7279 38.3516 40.5875 37.1923 40.5875C36.0331 40.5875 35.1811 40.7279 34.0673 41.1025C30.9506 42.1507 28.5582 44.7559 27.7476 47.9844C27.6313 48.4476 27.5199 49.1302 27.4578 49.7606L27.4252 50.0913H26.7233H26.0213V49.8243ZM11.5891 37.4925C10.4497 37.3492 9.28503 36.7691 8.4509 35.9295C6.32996 33.7944 6.32996 30.3254 8.4509 28.1904C10.5718 26.0554 14.018 26.0554 16.1389 28.1904C17.532 29.5927 18.0677 31.6733 17.5229 33.5657C16.7722 36.1734 14.2696 37.8295 11.5891 37.4925ZM13.3658 35.9813C14.47 35.6636 15.3593 34.9244 15.8729 33.8974C16.1873 33.2686 16.2946 32.8074 16.2946 32.0844C16.2946 31.3615 16.1873 30.9002 15.8729 30.2715C15.355 29.2357 14.4712 28.5055 13.3414 28.18C13.022 28.0879 12.834 28.0677 12.2949 28.0677C11.5473 28.0677 11.12 28.1624 10.5183 28.4615C9.48696 28.9741 8.68682 29.9705 8.39587 31.1044C8.25594 31.6498 8.25622 32.521 8.39649 33.0644C8.78801 34.581 9.95217 35.7016 11.4978 36.0497C11.9662 36.1551 12.8774 36.1218 13.3658 35.9813H13.3658ZM36.5109 37.4925C35.3715 37.3492 34.2068 36.7691 33.3726 35.9295C31.2517 33.7944 31.2517 30.3254 33.3726 28.1904C35.4936 26.0554 38.9398 26.0554 41.0607 28.1904C43.1816 30.3254 43.1816 33.7944 41.0607 35.9295C39.8686 37.1295 38.1954 37.7043 36.5109 37.4925ZM38.2875 35.9813C39.3918 35.6636 40.2811 34.9244 40.7946 33.8974C41.109 33.2686 41.2163 32.8074 41.2163 32.0844C41.2163 31.3615 41.109 30.9002 40.7946 30.2715C40.2767 29.2357 39.3929 28.5055 38.2632 28.18C37.9437 28.0879 37.7557 28.0677 37.2167 28.0677C36.469 28.0677 36.0417 28.1624 35.44 28.4615C34.4087 28.9741 33.6086 29.9705 33.3176 31.1044C33.1777 31.6498 33.178 32.521 33.3182 33.0644C33.7098 34.581 34.8739 35.7016 36.4195 36.0497C36.8879 36.1551 37.7991 36.1218 38.2875 35.9813ZM1.09961 24.7372C1.09961 24.4065 1.22451 23.4301 1.32557 22.9707C1.80791 20.7783 2.90166 18.8049 4.4908 17.2599C6.20984 15.5887 8.24635 14.575 10.654 14.192C11.4171 14.0706 13.1727 14.0706 13.9358 14.192C16.3435 14.575 18.38 15.5887 20.099 17.2599C21.6882 18.8049 22.7819 20.7783 23.2643 22.9707C23.3653 23.4301 23.4902 24.4065 23.4902 24.7372V25.0042H22.764H22.0377L22.0051 24.6734C21.943 24.043 21.8316 23.3605 21.7153 22.8972C20.9047 19.6688 18.5123 17.0635 15.3956 16.0154C14.2818 15.6408 13.4298 15.5004 12.2706 15.5004C11.1113 15.5004 10.2593 15.6408 9.14559 16.0154C6.0289 17.0635 3.63649 19.6688 2.82588 22.8972C2.70957 23.3605 2.59818 24.043 2.53605 24.6734L2.50344 25.0042H1.80153H1.09961V24.7372ZM26.0213 24.7372C26.0213 24.4065 26.1462 23.4301 26.2473 22.9707C26.7296 20.7783 27.8234 18.8049 29.4125 17.2599C31.1316 15.5887 33.1681 14.575 35.5758 14.192C36.3389 14.0706 38.0945 14.0706 38.8576 14.192C41.2652 14.575 43.3018 15.5887 45.0208 17.2599C46.6099 18.8049 47.7037 20.7783 48.186 22.9707C48.2871 23.4301 48.412 24.4065 48.412 24.7372V25.0042H47.6857H46.9595L46.9269 24.6734C46.8647 24.043 46.7533 23.3605 46.637 22.8972C45.8264 19.6688 43.434 17.0635 40.3173 16.0154C39.2036 15.6408 38.3516 15.5004 37.1923 15.5004C36.0331 15.5004 35.1811 15.6408 34.0673 16.0154C30.9506 17.0635 28.5582 19.6688 27.7476 22.8972C27.6313 23.3605 27.5199 24.043 27.4578 24.6734L27.4252 25.0042H26.7233H26.0213V24.7372ZM11.5891 12.4053C10.4497 12.2621 9.28503 11.682 8.4509 10.8423C6.32996 8.70728 6.32996 5.23822 8.4509 3.10321C10.5718 0.9682 14.018 0.9682 16.1389 3.10321C17.532 4.50551 18.0677 6.58611 17.5229 8.47854C16.7722 11.0863 14.2696 12.7424 11.5891 12.4053ZM13.3658 10.8941C14.47 10.5765 15.3593 9.83728 15.8729 8.81019C16.1873 8.18147 16.2946 7.72022 16.2946 6.99725C16.2946 6.27429 16.1873 5.81303 15.8729 5.18431C15.355 4.14856 14.4712 3.41832 13.3414 3.09279C13.022 3.00075 12.834 2.98059 12.2949 2.98059C11.5473 2.98059 11.12 3.07529 10.5183 3.37435C9.48696 3.88694 8.68682 4.88332 8.39587 6.01729C8.25594 6.56263 8.25622 7.43388 8.39649 7.97722C8.78801 9.49381 9.95217 10.6144 11.4978 10.9625C11.9662 11.068 12.8774 11.0346 13.3658 10.8941H13.3658ZM36.5109 12.4053C35.3715 12.2621 34.2068 11.682 33.3726 10.8423C31.2517 8.70728 31.2517 5.23822 33.3726 3.10321C35.4936 0.9682 38.9398 0.9682 41.0607 3.10321C42.4537 4.50551 42.9894 6.58611 42.4446 8.47854C41.6939 11.0863 39.1914 12.7424 36.5109 12.4053ZM38.2875 10.8941C39.3918 10.5765 40.2811 9.83728 40.7946 8.81019C41.109 8.18147 41.2163 7.72022 41.2163 6.99725C41.2163 6.27429 41.109 5.81303 40.7946 5.18431C40.2767 4.14856 39.3929 3.41832 38.2632 3.09279C37.9437 3.00075 37.7557 2.98059 37.2167 2.98059C36.469 2.98059 36.0417 3.07529 35.44 3.37435C34.4087 3.88694 33.6086 4.88332 33.3176 6.01729C33.1777 6.56263 33.178 7.43388 33.3182 7.97722C33.7098 9.49381 34.8739 10.6144 36.4195 10.9625C36.8879 11.068 37.7991 11.0346 38.2875 10.8941Z" fill="white" stroke="white" stroke-width="2"/>
</svg>
