<svg width="654" height="87" viewBox="0 0 654 87" fill="none" xmlns="http://www.w3.org/2000/svg">
<path d="M640.671 84.3346L595.564 32.0803V84.3346H578.854V2.33105H591.99L637.29 54.8751V2.33105H654V84.3346H640.671V84.3346Z" fill="#E0E2E5"/>
<path d="M151.257 0.206055C127.497 0.206055 108.179 19.5237 108.179 43.2845C108.179 67.0452 127.497 86.3629 151.257 86.3629C175.018 86.3629 194.336 67.0452 194.336 43.2845C194.432 19.5237 175.115 0.206055 151.257 0.206055ZM151.257 70.0395C136.479 70.0395 124.599 58.0625 124.599 43.3811C124.599 28.6996 136.576 16.6261 151.257 16.6261C165.939 16.6261 177.916 28.603 177.916 43.2845C177.916 57.9659 166.035 70.0395 151.257 70.0395Z" fill="#E0E2E5"/>
<path d="M294.691 2.33105V42.4152C294.691 56.4206 284.453 68.6873 269.385 68.6873C254.8 68.6873 244.079 56.4206 244.079 42.4152V2.33105H227.562V40.5801C227.562 68.6873 246.3 85.2039 269.482 85.2039C292.663 85.2039 311.401 68.6873 311.401 40.5801V2.33105H294.691Z" fill="#E0E2E5"/>
<path d="M430.494 84.3346H408.569L374.28 43.2845L408.569 2.33105H428.949L393.694 43.2845L430.494 84.3346Z" fill="#E0E2E5"/>
<path d="M369.354 2.33105H352.258V84.3346H369.354V2.33105Z" fill="#E0E2E5"/>
<path d="M497.141 0.206055C473.283 0.206055 453.966 19.5237 453.966 43.2845C453.966 67.0452 473.283 86.3629 497.044 86.3629C520.805 86.3629 540.122 67.0452 540.122 43.2845C540.219 19.5237 520.901 0.206055 497.141 0.206055ZM497.141 70.0395C482.363 70.0395 470.482 58.0625 470.482 43.3811C470.482 28.6996 482.363 16.6261 497.141 16.6261C511.919 16.6261 523.799 28.603 523.799 43.2845C523.799 57.9659 511.822 70.0395 497.141 70.0395Z" fill="#E0E2E5"/>
<path d="M87.2193 2.33105H66.3562L43.658 32.37H43.5614L20.8631 2.33105H0L34.8684 47.7276V84.3346H52.0611V48.2105L87.2193 2.33105Z" fill="#E0E2E5"/>
</svg>
