<svg width="41" height="58" viewBox="0 0 41 58" fill="none" xmlns="http://www.w3.org/2000/svg">
<path d="M3.3807 31.7774L20.5 57.7571L37.6193 31.7774C39.6552 28.6868 40.8165 25.1027 40.98 21.4054C41.1434 17.7081 40.3029 14.0355 38.5477 10.7773C36.7924 7.51906 34.1878 4.7968 31.0103 2.89934C27.8328 1.00188 24.2009 0 20.5 0C16.7991 0 13.1672 1.00188 9.98968 2.89934C6.81218 4.7968 4.20761 7.51906 2.45234 10.7773C0.69706 14.0355 -0.143444 17.7081 0.0200064 21.4054C0.183456 25.1027 1.34476 28.6868 3.3807 31.7774ZM9.70399 9.69494C12.3798 7.03539 15.9454 5.46063 19.7135 5.27426C23.4815 5.0879 27.1851 6.30313 30.1103 8.68565C33.0355 11.0682 34.975 14.4493 35.555 18.1771C36.1349 21.9049 35.3143 25.7155 33.2512 28.874L20.5 48.2493L7.74881 28.874C5.83028 25.9363 4.97775 22.4292 5.3336 18.9386C5.68945 15.448 7.23212 12.1851 9.70399 9.69494Z" fill="#3C3C3B"/>
<path d="M20.4908 31.0168C22.6025 31.0168 24.6668 30.3907 26.4227 29.2176C28.1786 28.0446 29.5472 26.3772 30.3556 24.4264C31.1641 22.4756 31.3759 20.3288 30.9644 18.2576C30.5529 16.1864 29.5366 14.2837 28.0438 12.7901C26.5511 11.2964 24.649 10.2789 22.578 9.86614C20.5071 9.45338 18.3602 9.66391 16.4089 10.4711C14.4576 11.2783 12.7894 12.646 11.6153 14.4012C10.4412 16.1563 9.81379 18.2202 9.8125 20.3319C9.81423 23.1641 10.9396 25.8798 12.9416 27.883C14.9436 29.8863 17.6587 31.0133 20.4908 31.0168ZM20.4908 14.8849C21.5681 14.8849 22.6213 15.2043 23.517 15.8029C24.4128 16.4014 25.111 17.2521 25.5232 18.2474C25.9355 19.2428 26.0434 20.338 25.8332 21.3946C25.623 22.4512 25.1042 23.4218 24.3425 24.1836C23.5807 24.9454 22.6101 25.4641 21.5535 25.6743C20.4969 25.8845 19.4016 25.7766 18.4063 25.3643C17.411 24.9521 16.5603 24.2539 15.9618 23.3581C15.3632 22.4624 15.0438 21.4093 15.0438 20.3319C15.0455 18.8878 15.6199 17.5033 16.6411 16.4822C17.6622 15.4611 19.0467 14.8866 20.4908 14.8849Z" fill="#3C3C3B"/>
</svg>
